Gemunu-Latin-Light SemiCondensed.ufo
<glyph name="exclam" format="1">
  <advance width="197"/>
  <unicode hex="0021"/>
  <outline>
    <contour>
      <point x="120" y="176" type="line"/>
      <point x="132" y="480" type="line"/>
      <point x="132" y="645" type="line"/>
      <point x="80" y="645" type="line"/>
      <point x="80" y="480" type="line"/>
      <point x="92" y="176" type="line"/>
    </contour>
    <contour>
      <point x="131" y="0" type="line"/>
      <point x="131" y="65" type="line"/>
      <point x="81" y="65" type="line"/>
      <point x="81" y="0" type="line"/>
    </contour>
  </outline>
</glyph>
<glyph name="numbersign" format="1">
  <advance width="521"/>
  <unicode hex="0023"/>
  <outline>
    <contour>
      <point x="73" y="0" type="line"/>
      <point x="196" y="640" type="line"/>
      <point x="233" y="640" type="line"/>
      <point x="111" y="0" type="line"/>
    </contour>
    <contour>
      <point x="286" y="0" type="line"/>
      <point x="409" y="640" type="line"/>
      <point x="446" y="640" type="line"/>
      <point x="324" y="0" type="line"/>
    </contour>
    <contour>
      <point x="65" y="429" type="line"/>
      <point x="65" y="467" type="line"/>
      <point x="503" y="467" type="line"/>
      <point x="503" y="429" type="line"/>
    </contour>
    <contour>
      <point x="18" y="174" type="line"/>
      <point x="18" y="212" type="line"/>
      <point x="456" y="212" type="line"/>
      <point x="456" y="174" type="line"/>
    </contour>
  </outline>
</glyph>
<glyph name="dollar" format="1">
  <advance width="476"/>
  <unicode hex="0024"/>
  <outline>
    <contour>
      <point x="119" y="332" type="line" smooth="yes"/>
      <point x="111" y="332"/>
      <point x="107" y="336"/>
      <point x="107" y="344" type="curve" smooth="yes"/>
      <point x="107" y="545" type="line" smooth="yes"/>
      <point x="107" y="553"/>
      <point x="112" y="557"/>
      <point x="119" y="557" type="curve" smooth="yes"/>
      <point x="394" y="557" type="line"/>
      <point x="394" y="598" type="line"/>
      <point x="173" y="600" type="line" smooth="yes"/>
      <point x="98" y="601"/>
      <point x="60" y="564"/>
      <point x="60" y="494" type="curve" smooth="yes"/>
      <point x="60" y="383" type="line" smooth="yes"/>
      <point x="60" y="308"/>
      <point x="93" y="291"/>
      <point x="168" y="291" type="curve" smooth="yes"/>
      <point x="352" y="291" type="line" smooth="yes"/>
      <point x="359" y="291"/>
      <point x="364" y="287"/>
      <point x="364" y="279" type="curve" smooth="yes"/>
      <point x="364" y="72" type="line" smooth="yes"/>
      <point x="364" y="64"/>
      <point x="360" y="60"/>
      <point x="352" y="60" type="curve" smooth="yes"/>
      <point x="69" y="60" type="line"/>
      <point x="69" y="19" type="line"/>
      <point x="303" y="17" type="line" smooth="yes"/>
      <point x="378" y="16"/>
      <point x="411" y="45"/>
      <point x="411" y="120" type="curve" smooth="yes"/>
      <point x="411" y="236" type="line" smooth="yes"/>
      <point x="411" y="306"/>
      <point x="373" y="332"/>
      <point x="298" y="332" type="curve" smooth="yes"/>
    </contour>
    <contour>
      <point x="215" y="589" type="line"/>
      <point x="261" y="589" type="line"/>
      <point x="261" y="699" type="line"/>
      <point x="215" y="699" type="line"/>
    </contour>
    <contour>
      <point x="215" y="-80" type="line"/>
      <point x="261" y="-80" type="line"/>
      <point x="261" y="30" type="line"/>
      <point x="215" y="30" type="line"/>
    </contour>
  </outline>
</glyph>
<glyph name="percent" format="1">
  <advance width="678"/>
  <unicode hex="0025"/>
  <outline>
    <contour>
      <point x="35" y="357" type="line" smooth="yes"/>
      <point x="35" y="311"/>
      <point x="57" y="288"/>
      <point x="112" y="288" type="curve" smooth="yes"/>
      <point x="193" y="288" type="line" smooth="yes"/>
      <point x="248" y="288"/>
      <point x="271" y="311"/>
      <point x="271" y="357" type="curve" smooth="yes"/>
      <point x="271" y="566" type="line" smooth="yes"/>
      <point x="271" y="613"/>
      <point x="248" y="635"/>
      <point x="193" y="635" type="curve" smooth="yes"/>
      <point x="112" y="635" type="line" smooth="yes"/>
      <point x="57" y="635"/>
      <point x="35" y="613"/>
      <point x="35" y="566" type="curve" smooth="yes"/>
    </contour>
    <contour>
      <point x="219" y="597" type="line" smooth="yes"/>
      <point x="223" y="597"/>
      <point x="226" y="595"/>
      <point x="226" y="590" type="curve" smooth="yes"/>
      <point x="226" y="333" type="line" smooth="yes"/>
      <point x="226" y="328"/>
      <point x="223" y="326"/>
      <point x="219" y="326" type="curve" smooth="yes"/>
      <point x="87" y="326" type="line" smooth="yes"/>
      <point x="83" y="326"/>
      <point x="80" y="328"/>
      <point x="80" y="333" type="curve" smooth="yes"/>
      <point x="80" y="590" type="line" smooth="yes"/>
      <point x="80" y="595"/>
      <point x="83" y="597"/>
      <point x="87" y="597" type="curve" smooth="yes"/>
    </contour>
    <contour>
      <point x="407" y="69" type="line" smooth="yes"/>
      <point x="407" y="23"/>
      <point x="429" y="0"/>
      <point x="484" y="0" type="curve" smooth="yes"/>
      <point x="565" y="0" type="line" smooth="yes"/>
      <point x="620" y="0"/>
      <point x="643" y="23"/>
      <point x="643" y="69" type="curve" smooth="yes"/>
      <point x="643" y="278" type="line" smooth="yes"/>
      <point x="643" y="325"/>
      <point x="620" y="347"/>
      <point x="565" y="347" type="curve" smooth="yes"/>
      <point x="484" y="347" type="line" smooth="yes"/>
      <point x="429" y="347"/>
      <point x="407" y="325"/>
      <point x="407" y="278" type="curve" smooth="yes"/>
    </contour>
    <contour>
      <point x="591" y="309" type="line" smooth="yes"/>
      <point x="595" y="309"/>
      <point x="598" y="307"/>
      <point x="598" y="302" type="curve" smooth="yes"/>
      <point x="598" y="45" type="line" smooth="yes"/>
      <point x="598" y="40"/>
      <point x="595" y="38"/>
      <point x="591" y="38" type="curve" smooth="yes"/>
      <point x="459" y="38" type="line" smooth="yes"/>
      <point x="455" y="38"/>
      <point x="452" y="40"/>
      <point x="452" y="45" type="curve" smooth="yes"/>
      <point x="452" y="302" type="line" smooth="yes"/>
      <point x="452" y="307"/>
      <point x="455" y="309"/>
      <point x="459" y="309" type="curve" smooth="yes"/>
    </contour>
    <component base="fraction" xOffset="130"/>
  </outline>
</glyph>
<glyph name="ampersand" format="1">
  <advance width="559"/>
  <unicode hex="0026"/>
  <outline>
    <contour>
      <point x="325" y="-3" type="line" smooth="yes"/>
      <point x="401" y="-3"/>
      <point x="440" y="33"/>
      <point x="440" y="103" type="curve" smooth="yes"/>
      <point x="440" y="292" type="line" smooth="yes"/>
      <point x="440" y="300"/>
      <point x="445" y="304"/>
      <point x="452" y="304" type="curve" smooth="yes"/>
      <point x="524" y="304" type="line"/>
      <point x="524" y="347" type="line"/>
      <point x="501" y="347" type="line" smooth="yes"/>
      <point x="425" y="347"/>
      <point x="391" y="316"/>
      <point x="391" y="246" type="curve" smooth="yes"/>
      <point x="391" y="52" type="line" smooth="yes"/>
      <point x="391" y="44"/>
      <point x="386" y="40"/>
      <point x="379" y="40" type="curve" smooth="yes"/>
      <point x="141" y="40" type="line" smooth="yes"/>
      <point x="134" y="40"/>
      <point x="129" y="44"/>
      <point x="129" y="52" type="curve" smooth="yes"/>
      <point x="129" y="308" type="line" smooth="yes"/>
      <point x="129" y="316"/>
      <point x="133" y="320"/>
      <point x="141" y="320" type="curve" smooth="yes"/>
      <point x="297" y="320" type="line"/>
      <point x="297" y="361" type="line"/>
      <point x="146" y="361" type="line" smooth="yes"/>
      <point x="138" y="361"/>
      <point x="134" y="365"/>
      <point x="134" y="373" type="curve" smooth="yes"/>
      <point x="134" y="585" type="line" smooth="yes"/>
      <point x="134" y="593"/>
      <point x="138" y="597"/>
      <point x="146" y="597" type="curve" smooth="yes"/>
      <point x="374" y="597" type="line" smooth="yes"/>
      <point x="382" y="597"/>
      <point x="386" y="593"/>
      <point x="386" y="585" type="curve" smooth="yes"/>
      <point x="386" y="471" type="line"/>
      <point x="435" y="471" type="line"/>
      <point x="435" y="535" type="line" smooth="yes"/>
      <point x="435" y="610"/>
      <point x="400" y="638"/>
      <point x="325" y="638" type="curve" smooth="yes"/>
      <point x="195" y="638" type="line" smooth="yes"/>
      <point x="120" y="638"/>
      <point x="85" y="610"/>
      <point x="85" y="535" type="curve" smooth="yes"/>
      <point x="85" y="423" type="line" smooth="yes"/>
      <point x="85" y="353"/>
      <point x="125" y="330"/>
      <point x="200" y="330" type="curve"/>
      <point x="190" y="351" type="line"/>
      <point x="115" y="352"/>
      <point x="80" y="332"/>
      <point x="80" y="257" type="curve" smooth="yes"/>
      <point x="80" y="103" type="line" smooth="yes"/>
      <point x="80" y="33"/>
      <point x="120" y="-3"/>
      <point x="195" y="-3" type="curve" smooth="yes"/>
    </contour>
  </outline>
</glyph>
<glyph name="quotesingle" format="1">
  <advance width="141"/>
  <unicode hex="0027"/>
  <outline>
    <contour>
      <point x="38" y="505" type="line"/>
      <point x="38" y="675" type="line"/>
      <point x="92" y="675" type="line"/>
      <point x="92" y="603" type="line"/>
      <point x="68" y="505" type="line"/>
    </contour>
  </outline>
</glyph>
<glyph name="asterisk" format="1">
  <advance width="348"/>
  <unicode hex="002A"/>
  <outline>
    <contour>
      <point x="143" y="446" type="line"/>
      <point x="166" y="491" type="line"/>
      <point x="151" y="502" type="line"/>
      <point x="115" y="466" type="line"/>
      <point x="81" y="419" type="line"/>
      <point x="109" y="399" type="line"/>
    </contour>
    <contour>
      <point x="268" y="421" type="line"/>
      <point x="234" y="468" type="line"/>
      <point x="198" y="503" type="line"/>
      <point x="183" y="493" type="line"/>
      <point x="206" y="447" type="line"/>
      <point x="240" y="400" type="line"/>
    </contour>
    <contour>
      <point x="252" y="526" type="line"/>
      <point x="308" y="544" type="line"/>
      <point x="297" y="576" type="line"/>
      <point x="242" y="558" type="line"/>
      <point x="197" y="535" type="line"/>
      <point x="202" y="518" type="line"/>
    </contour>
    <contour>
      <point x="183" y="545" type="line"/>
      <point x="191" y="595" type="line"/>
      <point x="191" y="653" type="line"/>
      <point x="157" y="653" type="line"/>
      <point x="157" y="595" type="line"/>
      <point x="165" y="545" type="line"/>
    </contour>
    <contour>
      <point x="145" y="518" type="line"/>
      <point x="151" y="535" type="line"/>
      <point x="106" y="558" type="line"/>
      <point x="50" y="576" type="line"/>
      <point x="40" y="544" type="line"/>
      <point x="95" y="526" type="line"/>
    </contour>
  </outline>
</glyph>
<glyph name="plus" format="1">
  <advance width="520"/>
  <unicode hex="002B"/>
  <outline>
    <contour>
      <point x="460" y="317" type="line"/>
      <point x="60" y="317" type="line"/>
      <point x="60" y="277" type="line"/>
      <point x="460" y="277" type="line"/>
    </contour>
    <contour>
      <point x="281" y="103" type="line"/>
      <point x="281" y="491" type="line"/>
      <point x="239" y="491" type="line"/>
      <point x="239" y="103" type="line"/>
    </contour>
  </outline>
</glyph>
<glyph name="comma" format="1">
  <advance width="160"/>
  <unicode hex="002C"/>
  <outline>
    <contour>
      <point x="48" y="2" type="line"/>
      <point x="48" y="87" type="line"/>
      <point x="110" y="87" type="line"/>
      <point x="110" y="15" type="line" smooth="yes"/>
      <point x="110" y="-15"/>
      <point x="97" y="-54"/>
      <point x="69" y="-84" type="curve"/>
      <point x="48" y="-68" type="line"/>
      <point x="65" y="-42"/>
      <point x="72" y="-7"/>
      <point x="72" y="6" type="curve"/>
      <point x="75" y="2" type="line"/>
    </contour>
  </outline>
</glyph>
<glyph name="period" format="1">
  <advance width="185"/>
  <unicode hex="002E"/>
  <outline>
    <contour>
      <point x="125" y="0" type="line"/>
      <point x="125" y="87" type="line"/>
      <point x="60" y="87" type="line"/>
      <point x="60" y="0" type="line"/>
    </contour>
  </outline>
</glyph>
<glyph name="two" format="1">
  <advance width="434"/>
  <unicode hex="0032"/>
  <outline>
    <contour>
      <point x="62" y="262"/>
      <point x="41" y="254"/>
      <point x="41" y="194" type="curve" smooth="yes"/>
      <point x="41" y="0" type="line"/>
      <point x="388" y="0" type="line"/>
      <point x="388" y="40" type="line"/>
      <point x="89" y="40" type="line"/>
      <point x="89" y="198" type="line" smooth="yes"/>
      <point x="89" y="222"/>
      <point x="90" y="227"/>
      <point x="107" y="235" type="curve" smooth="yes"/>
      <point x="318" y="336" type="line" smooth="yes"/>
      <point x="371" y="361"/>
      <point x="386" y="377"/>
      <point x="386" y="425" type="curve" smooth="yes"/>
      <point x="386" y="532" type="line" smooth="yes"/>
      <point x="386" y="602"/>
      <point x="347" y="639"/>
      <point x="272" y="638" type="curve" smooth="yes"/>
      <point x="54" y="635" type="line"/>
      <point x="54" y="595" type="line"/>
      <point x="326" y="595" type="line" smooth="yes"/>
      <point x="333" y="595"/>
      <point x="338" y="591"/>
      <point x="338" y="583" type="curve" smooth="yes"/>
      <point x="338" y="405" type="line" smooth="yes"/>
      <point x="338" y="395"/>
      <point x="334" y="391"/>
      <point x="325" y="387" type="curve" smooth="yes"/>
      <point x="115" y="287" type="line" smooth="yes"/>
    </contour>
  </outline>
</glyph>
<glyph name="three" format="1">
  <advance width="438"/>
  <unicode hex="0033"/>
  <outline>
    <contour>
      <point x="318" y="-4"/>
      <point x="358" y="33"/>
      <point x="358" y="103" type="curve" smooth="yes"/>
      <point x="358" y="247" type="line" smooth="yes"/>
      <point x="358" y="322"/>
      <point x="323" y="341"/>
      <point x="248" y="340" type="curve"/>
      <point x="238" y="320" type="line"/>
      <point x="313" y="320"/>
      <point x="353" y="343"/>
      <point x="353" y="413" type="curve" smooth="yes"/>
      <point x="353" y="535" type="line" smooth="yes"/>
      <point x="353" y="610"/>
      <point x="318" y="639"/>
      <point x="243" y="638" type="curve" smooth="yes"/>
      <point x="28" y="635" type="line"/>
      <point x="28" y="597" type="line"/>
      <point x="292" y="597" type="line" smooth="yes"/>
      <point x="300" y="597"/>
      <point x="304" y="593"/>
      <point x="304" y="585" type="curve" smooth="yes"/>
      <point x="304" y="362" type="line" smooth="yes"/>
      <point x="304" y="354"/>
      <point x="300" y="350"/>
      <point x="292" y="350" type="curve" smooth="yes"/>
      <point x="80" y="350" type="line"/>
      <point x="80" y="310" type="line"/>
      <point x="297" y="310" type="line" smooth="yes"/>
      <point x="305" y="310"/>
      <point x="309" y="306"/>
      <point x="309" y="298" type="curve" smooth="yes"/>
      <point x="309" y="52" type="line" smooth="yes"/>
      <point x="309" y="44"/>
      <point x="304" y="40"/>
      <point x="297" y="40" type="curve" smooth="yes"/>
      <point x="25" y="40" type="line"/>
      <point x="25" y="0" type="line"/>
      <point x="243" y="-3" type="line" smooth="yes"/>
    </contour>
  </outline>
</glyph>
<glyph name="four" format="1">
  <advance width="514"/>
  <unicode hex="0034"/>
  <outline>
    <contour>
      <point x="375" y="0" type="line"/>
      <point x="375" y="164" type="line"/>
      <point x="370" y="159" type="line"/>
      <point x="469" y="159" type="line"/>
      <point x="469" y="195" type="line"/>
      <point x="370" y="195" type="line"/>
      <point x="375" y="190" type="line"/>
      <point x="375" y="635" type="line"/>
      <point x="334" y="635" type="line" smooth="yes"/>
      <point x="266" y="635"/>
      <point x="258" y="617"/>
      <point x="229" y="565" type="curve" smooth="yes"/>
      <point x="22" y="190" type="line"/>
      <point x="22" y="159" type="line"/>
      <point x="335" y="159" type="line"/>
      <point x="329" y="164" type="line"/>
      <point x="329" y="0" type="line"/>
    </contour>
    <contour>
      <point x="284" y="588" type="line" smooth="yes"/>
      <point x="287" y="593"/>
      <point x="288" y="595"/>
      <point x="295" y="595" type="curve" smooth="yes"/>
      <point x="329" y="595" type="line"/>
      <point x="329" y="190" type="line"/>
      <point x="335" y="195" type="line"/>
      <point x="65" y="195" type="line"/>
      <point x="70" y="190" type="line"/>
    </contour>
  </outline>
</glyph>
<glyph name="five" format="1">
  <advance width="432"/>
  <unicode hex="0035"/>
  <outline>
    <contour>
      <point x="94" y="375" type="line"/>
      <point x="94" y="595" type="line"/>
      <point x="360" y="595" type="line"/>
      <point x="360" y="635" type="line"/>
      <point x="47" y="635" type="line"/>
      <point x="47" y="335" type="line"/>
      <point x="316" y="335" type="line" smooth="yes"/>
      <point x="323" y="335"/>
      <point x="328" y="331"/>
      <point x="328" y="323" type="curve" smooth="yes"/>
      <point x="328" y="52" type="line" smooth="yes"/>
      <point x="328" y="44"/>
      <point x="324" y="40"/>
      <point x="316" y="40" type="curve" smooth="yes"/>
      <point x="37" y="40" type="line"/>
      <point x="37" y="0" type="line"/>
      <point x="267" y="-3" type="line" smooth="yes"/>
      <point x="342" y="-4"/>
      <point x="377" y="25"/>
      <point x="377" y="100" type="curve" smooth="yes"/>
      <point x="377" y="279" type="line" smooth="yes"/>
      <point x="377" y="349"/>
      <point x="337" y="375"/>
      <point x="262" y="375" type="curve" smooth="yes"/>
    </contour>
  </outline>
</glyph>
<glyph name="six" format="1">
  <advance width="484"/>
  <unicode hex="0036"/>
  <outline>
    <contour>
      <point x="324" y="-2" type="line" smooth="yes"/>
      <point x="399" y="-2"/>
      <point x="434" y="25"/>
      <point x="434" y="100" type="curve" smooth="yes"/>
      <point x="434" y="283" type="line" smooth="yes"/>
      <point x="434" y="353"/>
      <point x="394" y="379"/>
      <point x="319" y="379" type="curve" smooth="yes"/>
      <point x="121" y="379" type="line"/>
      <point x="121" y="339" type="line"/>
      <point x="373" y="339" type="line" smooth="yes"/>
      <point x="380" y="339"/>
      <point x="385" y="335"/>
      <point x="385" y="327" type="curve" smooth="yes"/>
      <point x="385" y="52" type="line" smooth="yes"/>
      <point x="385" y="44"/>
      <point x="381" y="40"/>
      <point x="373" y="40" type="curve" smooth="yes"/>
      <point x="142" y="40" type="line" smooth="yes"/>
      <point x="133" y="40"/>
      <point x="129" y="44"/>
      <point x="129" y="52" type="curve" smooth="yes"/>
      <point x="129" y="583" type="line" smooth="yes"/>
      <point x="129" y="591"/>
      <point x="134" y="595"/>
      <point x="141" y="595" type="curve" smooth="yes"/>
      <point x="411" y="595" type="line"/>
      <point x="411" y="635" type="line"/>
      <point x="195" y="638" type="line" smooth="yes"/>
      <point x="120" y="639"/>
      <point x="80" y="602"/>
      <point x="80" y="532" type="curve" smooth="yes"/>
      <point x="80" y="90" type="line" smooth="yes"/>
      <point x="80" y="15"/>
      <point x="115" y="-2"/>
      <point x="190" y="-2" type="curve" smooth="yes"/>
    </contour>
  </outline>
</glyph>
<glyph name="seven" format="1">
  <advance width="394"/>
  <unicode hex="0037"/>
  <outline>
    <contour>
      <point x="123" y="-2" type="line"/>
      <point x="363" y="578" type="line"/>
      <point x="363" y="618"/>
      <point x="343" y="635"/>
      <point x="301" y="635" type="curve" smooth="yes"/>
      <point x="20" y="635" type="line"/>
      <point x="20" y="596" type="line"/>
      <point x="312" y="596" type="line" smooth="yes"/>
      <point x="318" y="596"/>
      <point x="320" y="593"/>
      <point x="317" y="586" type="curve" smooth="yes"/>
      <point x="75" y="-2" type="line"/>
    </contour>
  </outline>
</glyph>
<glyph name="eight" format="1">
  <advance width="530"/>
  <unicode hex="0038"/>
  <outline>
    <contour>
      <point x="335" y="-3" type="line" smooth="yes"/>
      <point x="411" y="-3"/>
      <point x="450" y="33"/>
      <point x="450" y="103" type="curve" smooth="yes"/>
      <point x="450" y="247" type="line" smooth="yes"/>
      <point x="450" y="322"/>
      <point x="415" y="341"/>
      <point x="340" y="340" type="curve"/>
      <point x="330" y="320" type="line"/>
      <point x="405" y="320"/>
      <point x="445" y="343"/>
      <point x="445" y="413" type="curve" smooth="yes"/>
      <point x="445" y="535" type="line" smooth="yes"/>
      <point x="445" y="610"/>
      <point x="410" y="638"/>
      <point x="335" y="638" type="curve" smooth="yes"/>
      <point x="195" y="638" type="line" smooth="yes"/>
      <point x="120" y="638"/>
      <point x="85" y="610"/>
      <point x="85" y="535" type="curve" smooth="yes"/>
      <point x="85" y="413" type="line" smooth="yes"/>
      <point x="85" y="343"/>
      <point x="125" y="320"/>
      <point x="200" y="320" type="curve"/>
      <point x="190" y="340" type="line"/>
      <point x="115" y="341"/>
      <point x="80" y="322"/>
      <point x="80" y="247" type="curve" smooth="yes"/>
      <point x="80" y="103" type="line" smooth="yes"/>
      <point x="80" y="33"/>
      <point x="120" y="-3"/>
      <point x="195" y="-3" type="curve" smooth="yes"/>
    </contour>
    <contour>
      <point x="134" y="40"/>
      <point x="129" y="44"/>
      <point x="129" y="52" type="curve" smooth="yes"/>
      <point x="129" y="298" type="line" smooth="yes"/>
      <point x="129" y="306"/>
      <point x="133" y="310"/>
      <point x="141" y="310" type="curve" smooth="yes"/>
      <point x="389" y="310" type="line" smooth="yes"/>
      <point x="397" y="310"/>
      <point x="401" y="306"/>
      <point x="401" y="298" type="curve" smooth="yes"/>
      <point x="401" y="52" type="line" smooth="yes"/>
      <point x="401" y="44"/>
      <point x="396" y="40"/>
      <point x="389" y="40" type="curve" smooth="yes"/>
      <point x="141" y="40" type="line" smooth="yes"/>
    </contour>
    <contour>
      <point x="138" y="350"/>
      <point x="134" y="354"/>
      <point x="134" y="362" type="curve" smooth="yes"/>
      <point x="134" y="585" type="line" smooth="yes"/>
      <point x="134" y="593"/>
      <point x="138" y="597"/>
      <point x="146" y="597" type="curve" smooth="yes"/>
      <point x="384" y="597" type="line" smooth="yes"/>
      <point x="392" y="597"/>
      <point x="396" y="593"/>
      <point x="396" y="585" type="curve" smooth="yes"/>
      <point x="396" y="362" type="line" smooth="yes"/>
      <point x="396" y="354"/>
      <point x="392" y="350"/>
      <point x="384" y="350" type="curve" smooth="yes"/>
      <point x="146" y="350" type="line" smooth="yes"/>
    </contour>
  </outline>
</glyph>
<glyph name="semicolon" format="1">
  <advance width="210"/>
  <unicode hex="003B"/>
  <outline>
    <contour>
      <point x="70" y="2" type="line"/>
      <point x="70" y="87" type="line"/>
      <point x="135" y="87" type="line"/>
      <point x="135" y="15" type="line" smooth="yes"/>
      <point x="135" y="-15"/>
      <point x="122" y="-51"/>
      <point x="94" y="-81" type="curve"/>
      <point x="72" y="-62" type="line"/>
      <point x="86" y="-39"/>
      <point x="94" y="-7"/>
      <point x="94" y="6" type="curve"/>
      <point x="97" y="2" type="line"/>
    </contour>
    <contour>
      <point x="135" y="269" type="line"/>
      <point x="135" y="356" type="line"/>
      <point x="70" y="356" type="line"/>
      <point x="70" y="269" type="line"/>
    </contour>
  </outline>
</glyph>
<glyph name="equal" format="1">
  <advance width="485"/>
  <unicode hex="003D"/>
  <outline>
    <contour>
      <point x="415" y="376" type="line"/>
      <point x="60" y="376" type="line"/>
      <point x="60" y="336" type="line"/>
      <point x="415" y="336" type="line"/>
    </contour>
    <contour>
      <point x="415" y="209" type="line"/>
      <point x="60" y="209" type="line"/>
      <point x="60" y="169" type="line"/>
      <point x="415" y="169" type="line"/>
    </contour>
  </outline>
</glyph>
<glyph name="greater" format="1">
  <advance width="468"/>
  <unicode hex="003E"/>
  <outline>
    <contour>
      <point x="408" y="316" type="line"/>
      <point x="70" y="489" type="line"/>
      <point x="70" y="443" type="line"/>
      <point x="366" y="294" type="line"/>
      <point x="366" y="309" type="line"/>
      <point x="70" y="159" type="line"/>
      <point x="70" y="114" type="line"/>
      <point x="408" y="288" type="line"/>
    </contour>
  </outline>
</glyph>
<glyph name="question" format="1">
  <advance width="362"/>
  <unicode hex="003F"/>
  <outline>
    <contour>
      <point x="153" y="140" type="line"/>
      <point x="153" y="219" type="line" smooth="yes"/>
      <point x="153" y="243"/>
      <point x="156" y="251"/>
      <point x="171" y="266" type="curve" smooth="yes"/>
      <point x="231" y="330" type="line" smooth="yes"/>
      <point x="272" y="374"/>
      <point x="300" y="391"/>
      <point x="300" y="429" type="curve" smooth="yes"/>
      <point x="300" y="540" type="line" smooth="yes"/>
      <point x="300" y="610"/>
      <point x="265" y="635"/>
      <point x="195" y="635" type="curve" smooth="yes"/>
      <point x="37" y="635" type="line"/>
      <point x="37" y="594" type="line"/>
      <point x="244" y="594" type="line" smooth="yes"/>
      <point x="248" y="594"/>
      <point x="251" y="592"/>
      <point x="251" y="587" type="curve" smooth="yes"/>
      <point x="251" y="417" type="line" smooth="yes"/>
      <point x="251" y="408"/>
      <point x="250" y="407"/>
      <point x="243" y="400" type="curve" smooth="yes"/>
      <point x="162" y="317" type="line" smooth="yes"/>
      <point x="120" y="273"/>
      <point x="105" y="265"/>
      <point x="105" y="221" type="curve" smooth="yes"/>
      <point x="105" y="140" type="line"/>
    </contour>
    <contour>
      <point x="154" y="0" type="line"/>
      <point x="154" y="65" type="line"/>
      <point x="104" y="65" type="line"/>
      <point x="104" y="0" type="line"/>
    </contour>
  </outline>
</glyph>
<glyph name="at" format="1">
  <advance width="621"/>
  <unicode hex="0040"/>
  <outline>
    <contour>
      <point x="433" y="-45" type="line"/>
      <point x="433" y="-3" type="line"/>
      <point x="124" y="-3" type="line" smooth="yes"/>
      <point x="120" y="-3"/>
      <point x="117" y="-1"/>
      <point x="117" y="4" type="curve" smooth="yes"/>
      <point x="117" y="551" type="line" smooth="yes"/>
      <point x="117" y="556"/>
      <point x="120" y="558"/>
      <point x="124" y="558" type="curve" smooth="yes"/>
      <point x="507" y="558" type="line" smooth="yes"/>
      <point x="511" y="558"/>
      <point x="514" y="556"/>
      <point x="514" y="551" type="curve" smooth="yes"/>
      <point x="514" y="140" type="line" smooth="yes"/>
      <point x="514" y="135"/>
      <point x="511" y="133"/>
      <point x="507" y="133" type="curve" smooth="yes"/>
      <point x="440" y="133" type="line" smooth="yes"/>
      <point x="436" y="133"/>
      <point x="433" y="135"/>
      <point x="433" y="140" type="curve" smooth="yes"/>
      <point x="433" y="460" type="line"/>
      <point x="293" y="463" type="line" smooth="yes"/>
      <point x="223" y="464"/>
      <point x="193" y="443"/>
      <point x="193" y="373" type="curve" smooth="yes"/>
      <point x="193" y="186" type="line" smooth="yes"/>
      <point x="193" y="116"/>
      <point x="223" y="96"/>
      <point x="293" y="96" type="curve" smooth="yes"/>
      <point x="315" y="96" type="line" smooth="yes"/>
      <point x="375" y="96"/>
      <point x="395" y="116"/>
      <point x="395" y="176" type="curve"/>
      <point x="388" y="133" type="line"/>
      <point x="388" y="130" type="line" smooth="yes"/>
      <point x="388" y="116"/>
      <point x="396" y="96"/>
      <point x="436" y="96" type="curve" smooth="yes"/>
      <point x="497" y="96" type="line" smooth="yes"/>
      <point x="547" y="96"/>
      <point x="561" y="116"/>
      <point x="561" y="176" type="curve" smooth="yes"/>
      <point x="561" y="510" type="line" smooth="yes"/>
      <point x="561" y="580"/>
      <point x="533" y="600"/>
      <point x="463" y="600" type="curve" smooth="yes"/>
      <point x="168" y="600" type="line" smooth="yes"/>
      <point x="98" y="600"/>
      <point x="70" y="580"/>
      <point x="70" y="510" type="curve" smooth="yes"/>
      <point x="70" y="45" type="line" smooth="yes"/>
      <point x="70" y="-25"/>
      <point x="98" y="-45"/>
      <point x="168" y="-45" type="curve" smooth="yes"/>
    </contour>
    <contour>
      <point x="242" y="133"/>
      <point x="239" y="135"/>
      <point x="239" y="140" type="curve" smooth="yes"/>
      <point x="239" y="420" type="line" smooth="yes"/>
      <point x="239" y="425"/>
      <point x="242" y="427"/>
      <point x="246" y="427" type="curve" smooth="yes"/>
      <point x="395" y="424" type="line"/>
      <point x="388" y="431" type="line"/>
      <point x="388" y="140" type="line" smooth="yes"/>
      <point x="388" y="135"/>
      <point x="385" y="133"/>
      <point x="381" y="133" type="curve" smooth="yes"/>
      <point x="246" y="133" type="line" smooth="yes"/>
    </contour>
  </outline>
</glyph>
<glyph name="A" format="1">
  <advance width="509"/>
  <unicode hex="0041"/>
  <outline>
    <contour>
      <point x="495" y="0" type="line"/>
      <point x="328" y="635" type="line"/>
      <point x="273" y="635" type="line" smooth="yes"/>
      <point x="205" y="635"/>
      <point x="198" y="621"/>
      <point x="178" y="554" type="curve" smooth="yes"/>
      <point x="15" y="0" type="line"/>
      <point x="59" y="0" type="line"/>
      <point x="113" y="190" type="line"/>
      <point x="100" y="180" type="line"/>
      <point x="411" y="180" type="line"/>
      <point x="399" y="190" type="line"/>
      <point x="448" y="0" type="line"/>
    </contour>
    <contour>
      <point x="228" y="588" type="line" smooth="yes"/>
      <point x="229" y="592"/>
      <point x="231" y="595"/>
      <point x="236" y="595" type="curve" smooth="yes"/>
      <point x="294" y="595" type="line"/>
      <point x="393" y="210" type="line"/>
      <point x="401" y="220" type="line"/>
      <point x="112" y="220" type="line"/>
      <point x="119" y="210" type="line"/>
    </contour>
    <contour>
      <point x="495" y="0" type="move" name="ogonek"/>
    </contour>
    <contour>
      <point x="270" y="615" type="move" name="top"/>
    </contour>
  </outline>
</glyph>
<glyph name="B" format="1">
  <advance width="525"/>
  <unicode hex="0042"/>
  <outline>
    <contour>
      <point x="415" y="-4"/>
      <point x="455" y="33"/>
      <point x="455" y="103" type="curve" smooth="yes"/>
      <point x="455" y="241" type="line" smooth="yes"/>
      <point x="455" y="316"/>
      <point x="420" y="335"/>
      <point x="345" y="334" type="curve"/>
      <point x="325" y="314" type="line"/>
      <point x="400" y="314"/>
      <point x="440" y="337"/>
      <point x="440" y="407" type="curve" smooth="yes"/>
      <point x="440" y="535" type="line" smooth="yes"/>
      <point x="440" y="610"/>
      <point x="405" y="639"/>
      <point x="330" y="638" type="curve" smooth="yes"/>
      <point x="75" y="635" type="line"/>
      <point x="75" y="0" type="line"/>
      <point x="340" y="-3" type="line" smooth="yes"/>
    </contour>
    <contour>
      <point x="121" y="316" type="line"/>
      <point x="110" y="304" type="line"/>
      <point x="394" y="304" type="line" smooth="yes"/>
      <point x="402" y="304"/>
      <point x="406" y="300"/>
      <point x="406" y="292" type="curve" smooth="yes"/>
      <point x="406" y="52" type="line" smooth="yes"/>
      <point x="406" y="44"/>
      <point x="401" y="40"/>
      <point x="394" y="40" type="curve" smooth="yes"/>
      <point x="108" y="40" type="line"/>
      <point x="121" y="27" type="line"/>
    </contour>
    <contour>
      <point x="121" y="610" type="line"/>
      <point x="111" y="598" type="line"/>
      <point x="379" y="598" type="line" smooth="yes"/>
      <point x="387" y="598"/>
      <point x="391" y="594"/>
      <point x="391" y="586" type="curve" smooth="yes"/>
      <point x="391" y="356" type="line" smooth="yes"/>
      <point x="391" y="348"/>
      <point x="386" y="344"/>
      <point x="379" y="344" type="curve" smooth="yes"/>
      <point x="110" y="344" type="line"/>
      <point x="121" y="331" type="line"/>
    </contour>
  </outline>
</glyph>
<glyph name="C" format="1">
  <advance width="422"/>
  <unicode hex="0043"/>
  <outline>
    <contour>
      <point x="397" y="42" type="line"/>
      <point x="121" y="42" type="line" smooth="yes"/>
      <point x="117" y="42"/>
      <point x="114" y="44"/>
      <point x="114" y="49" type="curve" smooth="yes"/>
      <point x="114" y="586" type="line" smooth="yes"/>
      <point x="114" y="591"/>
      <point x="117" y="593"/>
      <point x="121" y="593" type="curve" smooth="yes"/>
      <point x="397" y="593" type="line"/>
      <point x="397" y="635" type="line"/>
      <point x="165" y="635" type="line" smooth="yes"/>
      <point x="95" y="635"/>
      <point x="65" y="615"/>
      <point x="65" y="545" type="curve" smooth="yes"/>
      <point x="65" y="90" type="line" smooth="yes"/>
      <point x="65" y="20"/>
      <point x="95" y="0"/>
      <point x="165" y="0" type="curve" smooth="yes"/>
      <point x="397" y="0" type="line"/>
    </contour>
    <contour>
      <point x="254" y="615" type="move" name="top"/>
    </contour>
    <contour>
      <point x="244" y="0" type="move" name="bottom"/>
    </contour>
  </outline>
</glyph>
<glyph name="D" format="1">
  <advance width="520"/>
  <unicode hex="0044"/>
  <outline>
    <contour>
      <point x="394" y="598" type="line" smooth="yes"/>
      <point x="402" y="598"/>
      <point x="406" y="594"/>
      <point x="406" y="586" type="curve" smooth="yes"/>
      <point x="406" y="49" type="line" smooth="yes"/>
      <point x="406" y="41"/>
      <point x="401" y="37"/>
      <point x="394" y="37" type="curve" smooth="yes"/>
      <point x="121" y="37" type="line"/>
      <point x="121" y="598" type="line"/>
    </contour>
    <contour>
      <point x="75" y="-1" type="line"/>
      <point x="340" y="-5" type="line" smooth="yes"/>
      <point x="415" y="-6"/>
      <point x="455" y="25"/>
      <point x="455" y="100" type="curve" smooth="yes"/>
      <point x="455" y="535" type="line" smooth="yes"/>
      <point x="455" y="610"/>
      <point x="420" y="641"/>
      <point x="345" y="640" type="curve" smooth="yes"/>
      <point x="75" y="635" type="line"/>
    </contour>
    <contour>
      <point x="260" y="318" type="move" name="center"/>
    </contour>
    <contour>
      <point x="260" y="615" type="move" name="top"/>
    </contour>
  </outline>
</glyph>
<glyph name="E" format="1">
  <advance width="448"/>
  <unicode hex="0045"/>
  <outline>
    <contour>
      <point x="413" y="0" type="line"/>
      <point x="413" y="40" type="line"/>
      <point x="111" y="40" type="line"/>
      <point x="121" y="30" type="line"/>
      <point x="121" y="314" type="line"/>
      <point x="111" y="304" type="line"/>
      <point x="392" y="304" type="line"/>
      <point x="392" y="344" type="line"/>
      <point x="111" y="344" type="line"/>
      <point x="121" y="334" type="line"/>
      <point x="121" y="605" type="line"/>
      <point x="111" y="595" type="line"/>
      <point x="408" y="595" type="line"/>
      <point x="408" y="635" type="line"/>
      <point x="75" y="635" type="line"/>
      <point x="75" y="0" type="line"/>
    </contour>
    <contour>
      <point x="413" y="0" type="move" name="ogonek"/>
    </contour>
    <contour>
      <point x="224" y="0" type="move" name="bottom"/>
    </contour>
    <contour>
      <point x="250" y="615" type="move" name="top"/>
    </contour>
  </outline>
</glyph>
<glyph name="F" format="1">
  <advance width="417"/>
  <unicode hex="0046"/>
  <outline>
    <contour>
      <point x="386" y="334" type="line"/>
      <point x="108" y="334" type="line"/>
      <point x="121" y="321" type="line"/>
      <point x="121" y="635" type="line"/>
      <point x="75" y="635" type="line"/>
      <point x="75" y="0" type="line"/>
      <point x="121" y="0" type="line"/>
      <point x="121" y="306" type="line"/>
      <point x="108" y="294" type="line"/>
      <point x="386" y="294" type="line"/>
    </contour>
    <contour>
      <point x="113" y="595" type="line"/>
      <point x="402" y="595" type="line"/>
      <point x="402" y="635" type="line"/>
      <point x="113" y="635" type="line"/>
    </contour>
  </outline>
</glyph>
<glyph name="G" format="1">
  <advance width="515"/>
  <unicode hex="0047"/>
  <outline>
    <contour>
      <point x="360" y="-5" type="line" smooth="yes"/>
      <point x="430" y="-5"/>
      <point x="460" y="15"/>
      <point x="460" y="85" type="curve" smooth="yes"/>
      <point x="460" y="320" type="line"/>
      <point x="276" y="320" type="line"/>
      <point x="276" y="280" type="line"/>
      <point x="420" y="280" type="line"/>
      <point x="411" y="288" type="line"/>
      <point x="411" y="44" type="line" smooth="yes"/>
      <point x="411" y="39"/>
      <point x="408" y="37"/>
      <point x="404" y="37" type="curve" smooth="yes"/>
      <point x="121" y="37" type="line" smooth="yes"/>
      <point x="117" y="37"/>
      <point x="114" y="39"/>
      <point x="114" y="44" type="curve" smooth="yes"/>
      <point x="114" y="591" type="line" smooth="yes"/>
      <point x="114" y="596"/>
      <point x="117" y="598"/>
      <point x="121" y="598" type="curve" smooth="yes"/>
      <point x="450" y="598" type="line"/>
      <point x="450" y="640" type="line"/>
      <point x="165" y="640" type="line" smooth="yes"/>
      <point x="95" y="640"/>
      <point x="65" y="620"/>
      <point x="65" y="550" type="curve" smooth="yes"/>
      <point x="65" y="85" type="line" smooth="yes"/>
      <point x="65" y="15"/>
      <point x="95" y="-5"/>
      <point x="165" y="-5" type="curve" smooth="yes"/>
    </contour>
    <contour>
      <point x="269" y="615" type="move" name="top"/>
    </contour>
    <contour>
      <point x="258" y="0" type="move" name="bottom"/>
    </contour>
  </outline>
</glyph>
<glyph name="H" format="1">
  <advance width="555"/>
  <unicode hex="0048"/>
  <outline>
    <contour>
      <point x="434" y="329" type="line"/>
      <point x="447" y="342" type="line"/>
      <point x="108" y="342" type="line"/>
      <point x="121" y="329" type="line"/>
      <point x="121" y="635" type="line"/>
      <point x="75" y="635" type="line"/>
      <point x="75" y="0" type="line"/>
      <point x="121" y="0" type="line"/>
      <point x="121" y="314" type="line"/>
      <point x="108" y="302" type="line"/>
      <point x="447" y="302" type="line"/>
      <point x="434" y="314" type="line"/>
      <point x="434" y="0" type="line"/>
      <point x="480" y="0" type="line"/>
      <point x="480" y="635" type="line"/>
      <point x="434" y="635" type="line"/>
    </contour>
  </outline>
</glyph>
<glyph name="J" format="1">
  <advance width="250"/>
  <unicode hex="004A"/>
  <outline>
    <contour>
      <point x="170" y="635" type="line"/>
      <point x="124" y="635" type="line"/>
      <point x="124" y="44" type="line" smooth="yes"/>
      <point x="124" y="39"/>
      <point x="121" y="37"/>
      <point x="117" y="37" type="curve" smooth="yes"/>
      <point x="15" y="37" type="line"/>
      <point x="15" y="-5" type="line"/>
      <point x="84" y="-5" type="line" smooth="yes"/>
      <point x="144" y="-5"/>
      <point x="170" y="11"/>
      <point x="170" y="81" type="curve" smooth="yes"/>
    </contour>
  </outline>
</glyph>
<glyph name="K" format="1">
  <advance width="520"/>
  <unicode hex="004B"/>
  <outline>
    <contour>
      <point x="126" y="0" type="line"/>
      <point x="126" y="635" type="line"/>
      <point x="80" y="635" type="line"/>
      <point x="80" y="0" type="line"/>
    </contour>
    <contour>
      <point x="266" y="315" type="line" smooth="yes"/>
      <point x="336" y="315"/>
      <point x="348" y="334"/>
      <point x="375" y="395" type="curve" smooth="yes"/>
      <point x="483" y="635" type="line"/>
      <point x="435" y="635" type="line"/>
      <point x="308" y="350" type="line" smooth="yes"/>
      <point x="306" y="345"/>
      <point x="305" y="343"/>
      <point x="301" y="343" type="curve" smooth="yes"/>
      <point x="119" y="343" type="line"/>
      <point x="119" y="315" type="line"/>
    </contour>
    <contour>
      <point x="300" y="303" type="line" smooth="yes"/>
      <point x="304" y="303"/>
      <point x="305" y="301"/>
      <point x="307" y="296" type="curve" smooth="yes"/>
      <point x="458" y="0" type="line"/>
      <point x="509" y="0" type="line"/>
      <point x="379" y="251" type="line" smooth="yes"/>
      <point x="348" y="311"/>
      <point x="341" y="331"/>
      <point x="271" y="331" type="curve" smooth="yes"/>
      <point x="110" y="331" type="line"/>
      <point x="110" y="303" type="line"/>
    </contour>
  </outline>
</glyph>
<glyph name="L" format="1">
  <advance width="376"/>
  <unicode hex="004C"/>
  <outline>
    <contour>
      <point x="371" y="40" type="line"/>
      <point x="108" y="40" type="line"/>
      <point x="121" y="27" type="line"/>
      <point x="121" y="635" type="line"/>
      <point x="75" y="635" type="line"/>
      <point x="75" y="0" type="line"/>
      <point x="371" y="0" type="line"/>
    </contour>
    <contour>
      <point x="103" y="615" type="move" name="top"/>
    </contour>
    <contour>
      <point x="193" y="0" type="move" name="bottom"/>
    </contour>
    <contour>
      <point x="366" y="615" type="move" name="topright"/>
    </contour>
  </outline>
</glyph>
<glyph name="N" format="1">
  <advance width="555"/>
  <unicode hex="004E"/>
  <outline>
    <contour>
      <point x="439" y="59" type="line"/>
      <point x="456" y="73" type="line"/>
      <point x="105" y="635" type="line"/>
      <point x="74" y="635" type="line"/>
      <point x="74" y="0" type="line"/>
      <point x="116" y="0" type="line"/>
      <point x="116" y="576" type="line"/>
      <point x="99" y="562" type="line"/>
      <point x="450" y="0" type="line"/>
      <point x="481" y="0" type="line"/>
      <point x="481" y="635" type="line"/>
      <point x="439" y="635" type="line"/>
    </contour>
    <contour>
      <point x="279" y="615" type="move" name="top"/>
    </contour>
    <contour>
      <point x="278" y="0" type="move" name="bottom"/>
    </contour>
  </outline>
</glyph>
<glyph name="Q" format="1">
  <advance width="540"/>
  <unicode hex="0051"/>
  <outline>
    <contour>
      <point x="414" y="598" type="line" smooth="yes"/>
      <point x="418" y="598"/>
      <point x="421" y="596"/>
      <point x="421" y="591" type="curve" smooth="yes"/>
      <point x="421" y="44" type="line" smooth="yes"/>
      <point x="421" y="39"/>
      <point x="418" y="37"/>
      <point x="414" y="37" type="curve" smooth="yes"/>
      <point x="121" y="37" type="line" smooth="yes"/>
      <point x="117" y="37"/>
      <point x="114" y="39"/>
      <point x="114" y="44" type="curve" smooth="yes"/>
      <point x="114" y="591" type="line" smooth="yes"/>
      <point x="114" y="596"/>
      <point x="117" y="598"/>
      <point x="121" y="598" type="curve" smooth="yes"/>
    </contour>
    <contour>
      <point x="65" y="85" type="line" smooth="yes"/>
      <point x="65" y="15"/>
      <point x="95" y="-5"/>
      <point x="165" y="-5" type="curve" smooth="yes"/>
      <point x="370" y="-5" type="line" smooth="yes"/>
      <point x="440" y="-5"/>
      <point x="470" y="15"/>
      <point x="470" y="85" type="curve" smooth="yes"/>
      <point x="470" y="550" type="line" smooth="yes"/>
      <point x="470" y="620"/>
      <point x="440" y="640"/>
      <point x="370" y="640" type="curve" smooth="yes"/>
      <point x="165" y="640" type="line" smooth="yes"/>
      <point x="95" y="640"/>
      <point x="65" y="620"/>
      <point x="65" y="550" type="curve" smooth="yes"/>
    </contour>
    <contour>
      <point x="312" y="-110" type="line"/>
      <point x="357" y="-110" type="line"/>
      <point x="315" y="25" type="line"/>
      <point x="273" y="25" type="line"/>
    </contour>
  </outline>
</glyph>
<glyph name="R" format="1">
  <advance width="511"/>
  <unicode hex="0052"/>
  <outline>
    <contour>
      <point x="122" y="0" type="line"/>
      <point x="121" y="288" type="line"/>
      <point x="103" y="276" type="line"/>
      <point x="310" y="276" type="line" smooth="yes"/>
      <point x="320" y="276"/>
      <point x="323" y="274"/>
      <point x="326" y="266" type="curve" smooth="yes"/>
      <point x="419" y="0" type="line"/>
      <point x="466" y="0" type="line"/>
      <point x="389" y="222" type="line" smooth="yes"/>
      <point x="375" y="262"/>
      <point x="365" y="280"/>
      <point x="341" y="287" type="curve"/>
      <point x="340" y="276" type="line"/>
      <point x="415" y="276"/>
      <point x="450" y="304"/>
      <point x="450" y="379" type="curve" smooth="yes"/>
      <point x="450" y="535" type="line" smooth="yes"/>
      <point x="450" y="610"/>
      <point x="415" y="639"/>
      <point x="340" y="638" type="curve" smooth="yes"/>
      <point x="75" y="635" type="line"/>
      <point x="75" y="0" type="line"/>
    </contour>
    <contour>
      <point x="121" y="610" type="line"/>
      <point x="111" y="598" type="line"/>
      <point x="389" y="598" type="line" smooth="yes"/>
      <point x="397" y="598"/>
      <point x="401" y="594"/>
      <point x="401" y="586" type="curve" smooth="yes"/>
      <point x="401" y="326" type="line" smooth="yes"/>
      <point x="401" y="318"/>
      <point x="396" y="314"/>
      <point x="389" y="314" type="curve" smooth="yes"/>
      <point x="110" y="314" type="line"/>
      <point x="121" y="301" type="line"/>
    </contour>
    <contour>
      <point x="255" y="615" type="move" name="top"/>
    </contour>
    <contour>
      <point x="256" y="0" type="move" name="bottom"/>
    </contour>
  </outline>
</glyph>
<glyph name="S" format="1">
  <advance width="466"/>
  <unicode hex="0053"/>
  <outline>
    <contour>
      <point x="112" y="340" type="line" smooth="yes"/>
      <point x="104" y="340"/>
      <point x="100" y="344"/>
      <point x="100" y="352" type="curve" smooth="yes"/>
      <point x="100" y="583" type="line" smooth="yes"/>
      <point x="100" y="591"/>
      <point x="105" y="595"/>
      <point x="112" y="595" type="curve" smooth="yes"/>
      <point x="406" y="595" type="line"/>
      <point x="406" y="635" type="line"/>
      <point x="166" y="638" type="line" smooth="yes"/>
      <point x="91" y="639"/>
      <point x="51" y="602"/>
      <point x="51" y="532" type="curve" smooth="yes"/>
      <point x="51" y="392" type="line" smooth="yes"/>
      <point x="51" y="317"/>
      <point x="86" y="298"/>
      <point x="161" y="298" type="curve" smooth="yes"/>
      <point x="360" y="298" type="line" smooth="yes"/>
      <point x="367" y="298"/>
      <point x="372" y="294"/>
      <point x="372" y="286" type="curve" smooth="yes"/>
      <point x="372" y="52" type="line" smooth="yes"/>
      <point x="372" y="44"/>
      <point x="368" y="40"/>
      <point x="360" y="40" type="curve" smooth="yes"/>
      <point x="56" y="40" type="line"/>
      <point x="56" y="0" type="line"/>
      <point x="311" y="-3" type="line" smooth="yes"/>
      <point x="386" y="-4"/>
      <point x="421" y="25"/>
      <point x="421" y="100" type="curve" smooth="yes"/>
      <point x="421" y="244" type="line" smooth="yes"/>
      <point x="421" y="314"/>
      <point x="381" y="340"/>
      <point x="306" y="340" type="curve" smooth="yes"/>
    </contour>
    <contour>
      <point x="237" y="615" type="move" name="top"/>
    </contour>
    <contour>
      <point x="232" y="-2" type="move" name="bottom"/>
    </contour>
  </outline>
</glyph>
<glyph name="U" format="1">
  <advance width="535"/>
  <unicode hex="0055"/>
  <outline>
    <contour>
      <point x="370" y="-5" type="line" smooth="yes"/>
      <point x="440" y="-5"/>
      <point x="470" y="15"/>
      <point x="470" y="85" type="curve" smooth="yes"/>
      <point x="470" y="635" type="line"/>
      <point x="421" y="635" type="line"/>
      <point x="421" y="44" type="line" smooth="yes"/>
      <point x="421" y="39"/>
      <point x="418" y="37"/>
      <point x="414" y="37" type="curve" smooth="yes"/>
      <point x="121" y="37" type="line" smooth="yes"/>
      <point x="117" y="37"/>
      <point x="114" y="39"/>
      <point x="114" y="44" type="curve" smooth="yes"/>
      <point x="114" y="635" type="line"/>
      <point x="65" y="635" type="line"/>
      <point x="65" y="85" type="line" smooth="yes"/>
      <point x="65" y="15"/>
      <point x="95" y="-5"/>
      <point x="165" y="-5" type="curve" smooth="yes"/>
    </contour>
    <contour>
      <point x="319" y="0" type="move" name="ogonek"/>
    </contour>
    <contour>
      <point x="269" y="615" type="move" name="top"/>
    </contour>
  </outline>
</glyph>
<glyph name="V" format="1">
  <advance width="498"/>
  <unicode hex="0056"/>
  <outline>
    <contour>
      <point x="295" y="0"/>
      <point x="305" y="6"/>
      <point x="328" y="86" type="curve" smooth="yes"/>
      <point x="488" y="635" type="line"/>
      <point x="444" y="635" type="line"/>
      <point x="275" y="47" type="line" smooth="yes"/>
      <point x="274" y="42"/>
      <point x="272" y="40"/>
      <point x="268" y="40" type="curve" smooth="yes"/>
      <point x="219" y="40" type="line"/>
      <point x="58" y="635" type="line"/>
      <point x="12" y="635" type="line"/>
      <point x="185" y="0" type="line"/>
      <point x="232" y="0" type="line" smooth="yes"/>
    </contour>
  </outline>
</glyph>
<glyph name="W" format="1">
  <advance width="737"/>
  <unicode hex="0057"/>
  <outline>
    <contour>
      <point x="291" y="-5" type="line" smooth="yes"/>
      <point x="351" y="-5"/>
      <point x="379" y="25"/>
      <point x="381" y="85" type="curve"/>
      <point x="356" y="85" type="line"/>
      <point x="356" y="25"/>
      <point x="386" y="-5"/>
      <point x="446" y="-5" type="curve" smooth="yes"/>
      <point x="567" y="-5" type="line" smooth="yes"/>
      <point x="637" y="-5"/>
      <point x="667" y="16"/>
      <point x="667" y="86" type="curve" smooth="yes"/>
      <point x="667" y="635" type="line"/>
      <point x="618" y="635" type="line"/>
      <point x="618" y="44" type="line" smooth="yes"/>
      <point x="618" y="39"/>
      <point x="615" y="37"/>
      <point x="611" y="37" type="curve" smooth="yes"/>
      <point x="400" y="37" type="line" smooth="yes"/>
      <point x="396" y="37"/>
      <point x="393" y="38"/>
      <point x="393" y="44" type="curve" smooth="yes"/>
      <point x="393" y="635" type="line"/>
      <point x="344" y="635" type="line"/>
      <point x="344" y="44" type="line" smooth="yes"/>
      <point x="344" y="39"/>
      <point x="341" y="37"/>
      <point x="337" y="37" type="curve" smooth="yes"/>
      <point x="126" y="37" type="line" smooth="yes"/>
      <point x="122" y="37"/>
      <point x="119" y="38"/>
      <point x="119" y="44" type="curve" smooth="yes"/>
      <point x="119" y="635" type="line"/>
      <point x="70" y="635" type="line"/>
      <point x="70" y="84" type="line" smooth="yes"/>
      <point x="70" y="14"/>
      <point x="100" y="-5"/>
      <point x="174" y="-5" type="curve" smooth="yes"/>
    </contour>
  </outline>
</glyph>
<glyph name="X" format="1">
  <advance width="538"/>
  <unicode hex="0058"/>
  <outline>
    <contour>
      <point x="319" y="350" type="line" smooth="yes"/>
      <point x="317" y="345"/>
      <point x="315" y="343"/>
      <point x="310" y="343" type="curve" smooth="yes"/>
      <point x="230" y="343" type="line" smooth="yes"/>
      <point x="225" y="343"/>
      <point x="224" y="345"/>
      <point x="221" y="350" type="curve" smooth="yes"/>
      <point x="78" y="636" type="line"/>
      <point x="25" y="636" type="line"/>
      <point x="147" y="395" type="line" smooth="yes"/>
      <point x="177" y="335"/>
      <point x="185" y="315"/>
      <point x="255" y="315" type="curve" smooth="yes"/>
      <point x="280" y="315" type="line" smooth="yes"/>
      <point x="350" y="315"/>
      <point x="356" y="334"/>
      <point x="387" y="395" type="curve" smooth="yes"/>
      <point x="508" y="635" type="line"/>
      <point x="459" y="635" type="line"/>
    </contour>
    <contour>
      <point x="355" y="312"/>
      <point x="350" y="331"/>
      <point x="280" y="331" type="curve" smooth="yes"/>
      <point x="255" y="331" type="line" smooth="yes"/>
      <point x="185" y="331"/>
      <point x="177" y="310"/>
      <point x="146" y="251" type="curve" smooth="yes"/>
      <point x="15" y="1" type="line"/>
      <point x="65" y="1" type="line"/>
      <point x="218" y="296" type="line" smooth="yes"/>
      <point x="221" y="301"/>
      <point x="222" y="303"/>
      <point x="228" y="303" type="curve" smooth="yes"/>
      <point x="308" y="303" type="line" smooth="yes"/>
      <point x="313" y="303"/>
      <point x="315" y="301"/>
      <point x="317" y="296" type="curve" smooth="yes"/>
      <point x="470" y="0" type="line"/>
      <point x="523" y="0" type="line"/>
      <point x="388" y="251" type="line" smooth="yes"/>
    </contour>
  </outline>
</glyph>
<glyph name="Y" format="1">
  <advance width="508"/>
  <unicode hex="0059"/>
  <outline>
    <contour>
      <point x="300" y="282" type="line" smooth="yes"/>
      <point x="298" y="277"/>
      <point x="296" y="275"/>
      <point x="291" y="275" type="curve" smooth="yes"/>
      <point x="222" y="275" type="line" smooth="yes"/>
      <point x="217" y="275"/>
      <point x="215" y="277"/>
      <point x="213" y="282" type="curve" smooth="yes"/>
      <point x="66" y="636" type="line"/>
      <point x="15" y="636" type="line"/>
      <point x="149" y="313" type="line" smooth="yes"/>
      <point x="174" y="253"/>
      <point x="185" y="235"/>
      <point x="244" y="235" type="curve" smooth="yes"/>
      <point x="267" y="235" type="line" smooth="yes"/>
      <point x="327" y="235"/>
      <point x="335" y="253"/>
      <point x="360" y="313" type="curve" smooth="yes"/>
      <point x="493" y="635" type="line"/>
      <point x="444" y="635" type="line"/>
    </contour>
    <contour>
      <point x="278" y="0" type="line"/>
      <point x="278" y="262" type="line"/>
      <point x="232" y="262" type="line"/>
      <point x="232" y="0" type="line"/>
    </contour>
    <contour>
      <point x="254" y="615" type="move" name="top"/>
    </contour>
  </outline>
</glyph>
<glyph name="bracketleft" format="1">
  <advance width="279"/>
  <unicode hex="005B"/>
  <outline>
    <contour>
      <point x="239" y="-170" type="line"/>
      <point x="239" y="-133" type="line"/>
      <point x="118" y="-133" type="line"/>
      <point x="118" y="643" type="line"/>
      <point x="239" y="643" type="line"/>
      <point x="239" y="680" type="line"/>
      <point x="70" y="680" type="line"/>
      <point x="70" y="-170" type="line"/>
    </contour>
  </outline>
</glyph>
<glyph name="asciicircum" format="1">
  <advance width="415"/>
  <unicode hex="005E"/>
  <outline>
    <contour>
      <point x="193" y="675" type="line"/>
      <point x="50" y="387" type="line"/>
      <point x="91" y="387" type="line"/>
      <point x="210" y="633" type="line"/>
      <point x="203" y="633" type="line"/>
      <point x="323" y="387" type="line"/>
      <point x="365" y="387" type="line"/>
      <point x="221" y="675" type="line"/>
    </contour>
  </outline>
</glyph>
<glyph name="underscore" format="1">
  <advance width="432"/>
  <unicode hex="005F"/>
  <outline>
    <contour>
      <point x="412" y="-47" type="line"/>
      <point x="20" y="-47" type="line"/>
      <point x="20" y="-83" type="line"/>
      <point x="412" y="-83" type="line"/>
    </contour>
  </outline>
</glyph>
<glyph name="grave" format="1">
  <advance width="252"/>
  <unicode hex="0060"/>
  <outline>
    <contour>
      <point x="47" y="678" type="line"/>
      <point x="104" y="679" type="line"/>
      <point x="173" y="554" type="line"/>
      <point x="134" y="554" type="line"/>
    </contour>
    <contour>
      <point x="147" y="490" type="move" name="_top"/>
    </contour>
  </outline>
</glyph>
<glyph name="a" format="1">
  <advance width="399"/>
  <unicode hex="0061"/>
  <outline>
    <contour>
      <point x="227" y="-5" type="line" smooth="yes"/>
      <point x="287" y="-5"/>
      <point x="307" y="15"/>
      <point x="307" y="75" type="curve"/>
      <point x="300" y="32" type="line"/>
      <point x="308" y="0" type="line"/>
      <point x="346" y="0" type="line"/>
      <point x="346" y="400" type="line" smooth="yes"/>
      <point x="346" y="470"/>
      <point x="316" y="490"/>
      <point x="246" y="490" type="curve" smooth="yes"/>
      <point x="58" y="490" type="line"/>
      <point x="58" y="453" type="line"/>
      <point x="293" y="453" type="line" smooth="yes"/>
      <point x="297" y="453"/>
      <point x="300" y="451"/>
      <point x="300" y="446" type="curve" smooth="yes"/>
      <point x="300" y="32" type="line"/>
      <point x="88" y="32" type="line" smooth="yes"/>
      <point x="84" y="32"/>
      <point x="81" y="34"/>
      <point x="81" y="39" type="curve" smooth="yes"/>
      <point x="81" y="232" type="line" smooth="yes"/>
      <point x="81" y="237"/>
      <point x="84" y="239"/>
      <point x="88" y="239" type="curve" smooth="yes"/>
      <point x="307" y="239" type="line"/>
      <point x="307" y="275" type="line"/>
      <point x="135" y="275" type="line" smooth="yes"/>
      <point x="65" y="275"/>
      <point x="35" y="255"/>
      <point x="35" y="185" type="curve" smooth="yes"/>
      <point x="35" y="85" type="line" smooth="yes"/>
      <point x="35" y="15"/>
      <point x="65" y="-5"/>
      <point x="135" y="-5" type="curve" smooth="yes"/>
    </contour>
    <contour>
      <point x="346" y="0" type="move" name="ogonek"/>
    </contour>
    <contour>
      <point x="197" y="490" type="move" name="top"/>
    </contour>
  </outline>
</glyph>
<glyph name="c" format="1">
  <advance width="324"/>
  <unicode hex="0063"/>
  <outline>
    <contour>
      <point x="306" y="-5" type="line"/>
      <point x="306" y="32" type="line"/>
      <point x="103" y="32" type="line" smooth="yes"/>
      <point x="99" y="32"/>
      <point x="96" y="34"/>
      <point x="96" y="39" type="curve" smooth="yes"/>
      <point x="96" y="451" type="line" smooth="yes"/>
      <point x="96" y="456"/>
      <point x="99" y="458"/>
      <point x="103" y="458" type="curve" smooth="yes"/>
      <point x="306" y="458" type="line"/>
      <point x="306" y="495" type="line"/>
      <point x="150" y="495" type="line" smooth="yes"/>
      <point x="80" y="495"/>
      <point x="50" y="475"/>
      <point x="50" y="405" type="curve" smooth="yes"/>
      <point x="50" y="85" type="line" smooth="yes"/>
      <point x="50" y="15"/>
      <point x="80" y="-5"/>
      <point x="150" y="-5" type="curve" smooth="yes"/>
    </contour>
    <contour>
      <point x="177" y="490" type="move" name="top"/>
    </contour>
    <contour>
      <point x="196" y="0" type="move" name="bottom"/>
    </contour>
  </outline>
</glyph>
<glyph name="e" format="1">
  <advance width="409"/>
  <unicode hex="0065"/>
  <outline>
    <contour>
      <point x="354" y="-5" type="line"/>
      <point x="354" y="32" type="line"/>
      <point x="106" y="32" type="line" smooth="yes"/>
      <point x="102" y="32"/>
      <point x="99" y="34"/>
      <point x="99" y="39" type="curve" smooth="yes"/>
      <point x="99" y="451" type="line" smooth="yes"/>
      <point x="99" y="456"/>
      <point x="102" y="458"/>
      <point x="106" y="458" type="curve" smooth="yes"/>
      <point x="311" y="458" type="line" smooth="yes"/>
      <point x="315" y="458"/>
      <point x="318" y="456"/>
      <point x="318" y="451" type="curve" smooth="yes"/>
      <point x="318" y="234" type="line"/>
      <point x="92" y="234" type="line"/>
      <point x="92" y="198" type="line"/>
      <point x="364" y="198" type="line"/>
      <point x="364" y="405" type="line" smooth="yes"/>
      <point x="364" y="475"/>
      <point x="334" y="495"/>
      <point x="264" y="495" type="curve" smooth="yes"/>
      <point x="147" y="495" type="line" smooth="yes"/>
      <point x="77" y="495"/>
      <point x="53" y="475"/>
      <point x="53" y="405" type="curve" smooth="yes"/>
      <point x="53" y="85" type="line" smooth="yes"/>
      <point x="53" y="15"/>
      <point x="83" y="-5"/>
      <point x="153" y="-5" type="curve" smooth="yes"/>
    </contour>
    <contour>
      <point x="354" y="-5" type="move" name="ogonek"/>
    </contour>
    <contour>
      <point x="205" y="0" type="move" name="bottom"/>
    </contour>
    <contour>
      <point x="209" y="490" type="move" name="top"/>
    </contour>
  </outline>
</glyph>
<glyph name="f" format="1">
  <advance width="277"/>
  <unicode hex="0066"/>
  <outline>
    <contour>
      <point x="287" y="643" type="line"/>
      <point x="287" y="680" type="line"/>
      <point x="191" y="680" type="line" smooth="yes"/>
      <point x="121" y="680"/>
      <point x="91" y="660"/>
      <point x="91" y="590" type="curve" smooth="yes"/>
      <point x="91" y="480" type="line"/>
      <point x="101" y="490" type="line"/>
      <point x="26" y="490" type="line"/>
      <point x="26" y="454" type="line"/>
      <point x="101" y="454" type="line"/>
      <point x="91" y="464" type="line"/>
      <point x="91" y="0" type="line"/>
      <point x="136" y="0" type="line"/>
      <point x="136" y="464" type="line"/>
      <point x="126" y="454" type="line"/>
      <point x="272" y="454" type="line"/>
      <point x="272" y="490" type="line"/>
      <point x="126" y="490" type="line"/>
      <point x="136" y="480" type="line"/>
      <point x="136" y="636" type="line" smooth="yes"/>
      <point x="136" y="641"/>
      <point x="139" y="643"/>
      <point x="143" y="643" type="curve" smooth="yes"/>
    </contour>
  </outline>
</glyph>
<glyph name="h" format="1">
  <advance width="423"/>
  <unicode hex="0068"/>
  <outline>
    <contour>
      <point x="178" y="495" type="line" smooth="yes"/>
      <point x="118" y="495"/>
      <point x="93" y="475"/>
      <point x="93" y="415" type="curve"/>
      <point x="105" y="458" type="line"/>
      <point x="105" y="675" type="line"/>
      <point x="60" y="675" type="line"/>
      <point x="60" y="0" type="line"/>
      <point x="105" y="0" type="line"/>
      <point x="105" y="451" type="line" smooth="yes"/>
      <point x="105" y="457"/>
      <point x="108" y="458"/>
      <point x="112" y="458" type="curve" smooth="yes"/>
      <point x="318" y="458" type="line" smooth="yes"/>
      <point x="322" y="458"/>
      <point x="325" y="456"/>
      <point x="325" y="451" type="curve" smooth="yes"/>
      <point x="325" y="0" type="line"/>
      <point x="370" y="0" type="line"/>
      <point x="370" y="405" type="line" smooth="yes"/>
      <point x="370" y="475"/>
      <point x="340" y="495"/>
      <point x="270" y="495" type="curve" smooth="yes"/>
    </contour>
  </outline>
</glyph>
<glyph name="i" format="1">
  <advance width="185"/>
  <unicode hex="0069"/>
  <outline>
    <contour>
      <point x="115" y="0" type="line"/>
      <point x="115" y="490" type="line"/>
      <point x="70" y="490" type="line"/>
      <point x="70" y="0" type="line"/>
    </contour>
    <contour>
      <point x="115" y="607" type="line"/>
      <point x="115" y="662" type="line"/>
      <point x="70" y="662" type="line"/>
      <point x="70" y="607" type="line"/>
    </contour>
  </outline>
</glyph>
<glyph name="j" format="1">
  <advance width="180"/>
  <unicode hex="006A"/>
  <outline>
    <contour>
      <point x="115" y="607" type="line"/>
      <point x="115" y="662" type="line"/>
      <point x="70" y="662" type="line"/>
      <point x="70" y="607" type="line"/>
    </contour>
    <contour>
      <point x="70" y="-156"/>
      <point x="67" y="-158"/>
      <point x="63" y="-158" type="curve" smooth="yes"/>
      <point x="-31" y="-158" type="line"/>
      <point x="-31" y="-195" type="line"/>
      <point x="15" y="-195" type="line" smooth="yes"/>
      <point x="85" y="-195"/>
      <point x="115" y="-175"/>
      <point x="115" y="-105" type="curve" smooth="yes"/>
      <point x="115" y="490" type="line"/>
      <point x="70" y="490" type="line"/>
      <point x="70" y="-151" type="line" smooth="yes"/>
    </contour>
  </outline>
</glyph>
<glyph name="k" format="1">
  <advance width="426"/>
  <unicode hex="006B"/>
  <outline>
    <contour>
      <point x="117" y="0" type="line"/>
      <point x="117" y="675" type="line"/>
      <point x="73" y="675" type="line"/>
      <point x="73" y="0" type="line"/>
    </contour>
    <contour>
      <point x="222" y="246" type="line" smooth="yes"/>
      <point x="292" y="246"/>
      <point x="302" y="260"/>
      <point x="325" y="326" type="curve" smooth="yes"/>
      <point x="382" y="490" type="line"/>
      <point x="341" y="490" type="line"/>
      <point x="266" y="279" type="line" smooth="yes"/>
      <point x="264" y="274"/>
      <point x="263" y="272"/>
      <point x="259" y="272" type="curve" smooth="yes"/>
      <point x="105" y="272" type="line"/>
      <point x="105" y="246" type="line"/>
    </contour>
    <contour>
      <point x="274" y="236" type="line" smooth="yes"/>
      <point x="278" y="236"/>
      <point x="279" y="234"/>
      <point x="281" y="229" type="curve" smooth="yes"/>
      <point x="376" y="0" type="line"/>
      <point x="421" y="0" type="line"/>
      <point x="344" y="182" type="line" smooth="yes"/>
      <point x="317" y="246"/>
      <point x="311" y="262"/>
      <point x="241" y="262" type="curve" smooth="yes"/>
      <point x="105" y="262" type="line"/>
      <point x="105" y="236" type="line"/>
    </contour>
  </outline>
</glyph>
<glyph name="l" format="1">
  <advance width="185"/>
  <unicode hex="006C"/>
  <outline>
    <contour>
      <point x="115" y="0" type="line"/>
      <point x="115" y="675" type="line"/>
      <point x="70" y="675" type="line"/>
      <point x="70" y="0" type="line"/>
    </contour>
    <contour>
      <point x="93" y="644" type="move" name="top"/>
    </contour>
    <contour>
      <point x="93" y="0" type="move" name="bottom"/>
    </contour>
    <contour>
      <point x="165" y="644" type="move" name="topright"/>
    </contour>
  </outline>
</glyph>
<glyph name="m" format="1">
  <advance width="658"/>
  <unicode hex="006D"/>
  <outline>
    <contour>
      <point x="168" y="495" type="line" smooth="yes"/>
      <point x="108" y="495"/>
      <point x="83" y="475"/>
      <point x="83" y="415" type="curve"/>
      <point x="95" y="458" type="line"/>
      <point x="87" y="490" type="line"/>
      <point x="50" y="490" type="line"/>
      <point x="50" y="0" type="line"/>
      <point x="95" y="0" type="line"/>
      <point x="95" y="451" type="line" smooth="yes"/>
      <point x="95" y="457"/>
      <point x="98" y="458"/>
      <point x="102" y="458" type="curve" smooth="yes"/>
      <point x="298" y="458" type="line" smooth="yes"/>
      <point x="302" y="458"/>
      <point x="305" y="456"/>
      <point x="305" y="451" type="curve" smooth="yes"/>
      <point x="305" y="0" type="line"/>
      <point x="350" y="0" type="line"/>
      <point x="350" y="405" type="line" smooth="yes"/>
      <point x="350" y="475"/>
      <point x="320" y="495"/>
      <point x="250" y="495" type="curve" smooth="yes"/>
    </contour>
    <contour>
      <point x="423" y="495" type="line" smooth="yes"/>
      <point x="363" y="495"/>
      <point x="338" y="475"/>
      <point x="338" y="415" type="curve"/>
      <point x="350" y="405" type="line"/>
      <point x="350" y="451" type="line"/>
      <point x="350" y="457"/>
      <point x="353" y="458"/>
      <point x="357" y="458" type="curve" smooth="yes"/>
      <point x="553" y="458" type="line" smooth="yes"/>
      <point x="557" y="458"/>
      <point x="560" y="456"/>
      <point x="560" y="451" type="curve" smooth="yes"/>
      <point x="560" y="0" type="line"/>
      <point x="605" y="0" type="line"/>
      <point x="605" y="405" type="line" smooth="yes"/>
      <point x="605" y="475"/>
      <point x="575" y="495"/>
      <point x="505" y="495" type="curve" smooth="yes"/>
    </contour>
  </outline>
</glyph>
<glyph name="o" format="1">
  <advance width="422"/>
  <unicode hex="006F"/>
  <outline>
    <contour>
      <point x="319" y="458" type="line" smooth="yes"/>
      <point x="323" y="458"/>
      <point x="326" y="456"/>
      <point x="326" y="451" type="curve" smooth="yes"/>
      <point x="326" y="39" type="line" smooth="yes"/>
      <point x="326" y="34"/>
      <point x="323" y="32"/>
      <point x="319" y="32" type="curve" smooth="yes"/>
      <point x="103" y="32" type="line" smooth="yes"/>
      <point x="99" y="32"/>
      <point x="96" y="34"/>
      <point x="96" y="39" type="curve" smooth="yes"/>
      <point x="96" y="451" type="line" smooth="yes"/>
      <point x="96" y="456"/>
      <point x="99" y="458"/>
      <point x="103" y="458" type="curve" smooth="yes"/>
    </contour>
    <contour>
      <point x="50" y="85" type="line" smooth="yes"/>
      <point x="50" y="15"/>
      <point x="80" y="-5"/>
      <point x="150" y="-5" type="curve" smooth="yes"/>
      <point x="272" y="-5" type="line" smooth="yes"/>
      <point x="342" y="-5"/>
      <point x="372" y="15"/>
      <point x="372" y="85" type="curve" smooth="yes"/>
      <point x="372" y="405" type="line" smooth="yes"/>
      <point x="372" y="475"/>
      <point x="342" y="495"/>
      <point x="272" y="495" type="curve" smooth="yes"/>
      <point x="150" y="495" type="line" smooth="yes"/>
      <point x="80" y="495"/>
      <point x="50" y="475"/>
      <point x="50" y="405" type="curve" smooth="yes"/>
    </contour>
    <contour>
      <point x="212" y="490" type="move" name="top"/>
    </contour>
  </outline>
</glyph>
<glyph name="q" format="1">
  <advance width="420"/>
  <unicode hex="0071"/>
  <outline>
    <contour>
      <point x="150" y="493" type="line" smooth="yes"/>
      <point x="80" y="494"/>
      <point x="50" y="473"/>
      <point x="50" y="403" type="curve" smooth="yes"/>
      <point x="50" y="85" type="line" smooth="yes"/>
      <point x="50" y="15"/>
      <point x="80" y="-5"/>
      <point x="150" y="-5" type="curve" smooth="yes"/>
      <point x="242" y="-5" type="line" smooth="yes"/>
      <point x="302" y="-5"/>
      <point x="322" y="15"/>
      <point x="322" y="75" type="curve"/>
      <point x="315" y="32" type="line"/>
      <point x="315" y="-190" type="line"/>
      <point x="360" y="-190" type="line"/>
      <point x="360" y="490" type="line"/>
    </contour>
    <contour>
      <point x="315" y="39" type="line" smooth="yes"/>
      <point x="315" y="34"/>
      <point x="312" y="32"/>
      <point x="308" y="32" type="curve" smooth="yes"/>
      <point x="103" y="32" type="line" smooth="yes"/>
      <point x="99" y="32"/>
      <point x="96" y="34"/>
      <point x="96" y="39" type="curve" smooth="yes"/>
      <point x="96" y="450" type="line" smooth="yes"/>
      <point x="96" y="455"/>
      <point x="99" y="457"/>
      <point x="103" y="457" type="curve" smooth="yes"/>
      <point x="322" y="454" type="line"/>
      <point x="315" y="461" type="line"/>
    </contour>
  </outline>
</glyph>
<glyph name="r" format="1">
  <advance width="251"/>
  <unicode hex="0072"/>
  <outline>
    <contour>
      <point x="178" y="495" type="line" smooth="yes"/>
      <point x="118" y="495"/>
      <point x="93" y="475"/>
      <point x="93" y="415" type="curve"/>
      <point x="105" y="458" type="line"/>
      <point x="97" y="490" type="line"/>
      <point x="60" y="490" type="line"/>
      <point x="60" y="0" type="line"/>
      <point x="105" y="0" type="line"/>
      <point x="105" y="451" type="line" smooth="yes"/>
      <point x="105" y="457"/>
      <point x="108" y="458"/>
      <point x="112" y="458" type="curve" smooth="yes"/>
      <point x="249" y="458" type="line"/>
      <point x="249" y="495" type="line"/>
    </contour>
    <contour>
      <point x="121" y="490" type="move" name="top"/>
    </contour>
    <contour>
      <point x="126" y="0" type="move" name="bottom"/>
    </contour>
  </outline>
</glyph>
<glyph name="s" format="1">
  <advance width="360"/>
  <unicode hex="0073"/>
  <outline>
    <contour>
      <point x="235" y="-5" type="line" smooth="yes"/>
      <point x="305" y="-5"/>
      <point x="335" y="15"/>
      <point x="335" y="85" type="curve" smooth="yes"/>
      <point x="335" y="178" type="line" smooth="yes"/>
      <point x="335" y="248"/>
      <point x="305" y="268"/>
      <point x="235" y="268" type="curve" smooth="yes"/>
      <point x="88" y="268" type="line" smooth="yes"/>
      <point x="84" y="268"/>
      <point x="81" y="270"/>
      <point x="81" y="275" type="curve" smooth="yes"/>
      <point x="81" y="451" type="line" smooth="yes"/>
      <point x="81" y="456"/>
      <point x="84" y="458"/>
      <point x="88" y="458" type="curve" smooth="yes"/>
      <point x="315" y="458" type="line"/>
      <point x="315" y="495" type="line"/>
      <point x="135" y="495" type="line" smooth="yes"/>
      <point x="65" y="495"/>
      <point x="35" y="475"/>
      <point x="35" y="405" type="curve" smooth="yes"/>
      <point x="35" y="322" type="line" smooth="yes"/>
      <point x="35" y="252"/>
      <point x="65" y="232"/>
      <point x="135" y="232" type="curve" smooth="yes"/>
      <point x="282" y="232" type="line" smooth="yes"/>
      <point x="286" y="232"/>
      <point x="289" y="230"/>
      <point x="289" y="225" type="curve" smooth="yes"/>
      <point x="289" y="39" type="line" smooth="yes"/>
      <point x="289" y="34"/>
      <point x="286" y="32"/>
      <point x="282" y="32" type="curve" smooth="yes"/>
      <point x="41" y="32" type="line"/>
      <point x="41" y="-5" type="line"/>
    </contour>
    <contour>
      <point x="184" y="490" type="move" name="top"/>
    </contour>
    <contour>
      <point x="180" y="0" type="move" name="bottom"/>
    </contour>
  </outline>
</glyph>
<glyph name="t" format="1">
  <advance width="254"/>
  <unicode hex="0074"/>
  <outline>
    <contour>
      <point x="254" y="490" type="line"/>
      <point x="124" y="490" type="line"/>
      <point x="134" y="480" type="line"/>
      <point x="134" y="615" type="line"/>
      <point x="89" y="615" type="line"/>
      <point x="89" y="480" type="line"/>
      <point x="99" y="490" type="line"/>
      <point x="24" y="490" type="line"/>
      <point x="24" y="454" type="line"/>
      <point x="99" y="454" type="line"/>
      <point x="89" y="464" type="line"/>
      <point x="89" y="90" type="line" smooth="yes"/>
      <point x="89" y="20"/>
      <point x="119" y="0"/>
      <point x="189" y="0" type="curve" smooth="yes"/>
      <point x="254" y="0" type="line"/>
      <point x="254" y="37" type="line"/>
      <point x="141" y="37" type="line" smooth="yes"/>
      <point x="137" y="37"/>
      <point x="134" y="39"/>
      <point x="134" y="44" type="curve" smooth="yes"/>
      <point x="134" y="464" type="line"/>
      <point x="124" y="454" type="line"/>
      <point x="254" y="454" type="line"/>
    </contour>
    <contour>
      <point x="127" y="245" type="move" name="center"/>
    </contour>
    <contour>
      <point x="166" y="0" type="move" name="bottom"/>
    </contour>
    <contour>
      <point x="234" y="490" type="move" name="topright"/>
    </contour>
  </outline>
</glyph>
<glyph name="u" format="1">
  <advance width="425"/>
  <unicode hex="0075"/>
  <outline>
    <contour>
      <point x="247" y="-5" type="line" smooth="yes"/>
      <point x="307" y="-5"/>
      <point x="327" y="15"/>
      <point x="327" y="75" type="curve"/>
      <point x="320" y="32" type="line"/>
      <point x="328" y="0" type="line"/>
      <point x="365" y="0" type="line"/>
      <point x="365" y="490" type="line"/>
      <point x="320" y="490" type="line"/>
      <point x="320" y="32" type="line"/>
      <point x="106" y="32" type="line" smooth="yes"/>
      <point x="102" y="32"/>
      <point x="99" y="34"/>
      <point x="99" y="39" type="curve" smooth="yes"/>
      <point x="99" y="490" type="line"/>
      <point x="54" y="490" type="line"/>
      <point x="54" y="85" type="line" smooth="yes"/>
      <point x="54" y="15"/>
      <point x="84" y="-5"/>
      <point x="154" y="-5" type="curve" smooth="yes"/>
    </contour>
    <contour>
      <point x="365" y="0" type="move" name="ogonek"/>
    </contour>
    <contour>
      <point x="209" y="490" type="move" name="top"/>
    </contour>
  </outline>
</glyph>
<glyph name="v" format="1">
  <advance width="391"/>
  <unicode hex="0076"/>
  <outline>
    <contour>
      <point x="252" y="-9"/>
      <point x="264" y="15"/>
      <point x="281" y="81" type="curve" smooth="yes"/>
      <point x="384" y="490" type="line"/>
      <point x="341" y="490" type="line"/>
      <point x="232" y="39" type="line" smooth="yes"/>
      <point x="231" y="34"/>
      <point x="229" y="32"/>
      <point x="225" y="32" type="curve" smooth="yes"/>
      <point x="159" y="32" type="line"/>
      <point x="49" y="490" type="line"/>
      <point x="4" y="490" type="line"/>
      <point x="124" y="0" type="line"/>
      <point x="183" y="-4" type="line" smooth="yes"/>
    </contour>
  </outline>
</glyph>
<glyph name="w" format="1">
  <advance width="655"/>
  <unicode hex="0077"/>
  <outline>
    <contour>
      <point x="250" y="-5" type="line" smooth="yes"/>
      <point x="310" y="-5"/>
      <point x="338" y="25"/>
      <point x="340" y="85" type="curve"/>
      <point x="315" y="85" type="line"/>
      <point x="315" y="25"/>
      <point x="345" y="-5"/>
      <point x="405" y="-5" type="curve" smooth="yes"/>
      <point x="500" y="-5" type="line" smooth="yes"/>
      <point x="570" y="-5"/>
      <point x="600" y="15"/>
      <point x="600" y="85" type="curve" smooth="yes"/>
      <point x="600" y="490" type="line"/>
      <point x="555" y="490" type="line"/>
      <point x="555" y="39" type="line" smooth="yes"/>
      <point x="555" y="34"/>
      <point x="552" y="32"/>
      <point x="548" y="32" type="curve" smooth="yes"/>
      <point x="357" y="32" type="line" smooth="yes"/>
      <point x="353" y="32"/>
      <point x="350" y="33"/>
      <point x="350" y="39" type="curve" smooth="yes"/>
      <point x="350" y="490" type="line"/>
      <point x="305" y="490" type="line"/>
      <point x="305" y="39" type="line" smooth="yes"/>
      <point x="305" y="34"/>
      <point x="302" y="32"/>
      <point x="298" y="32" type="curve" smooth="yes"/>
      <point x="107" y="32" type="line" smooth="yes"/>
      <point x="103" y="32"/>
      <point x="100" y="33"/>
      <point x="100" y="39" type="curve" smooth="yes"/>
      <point x="100" y="490" type="line"/>
      <point x="55" y="490" type="line"/>
      <point x="55" y="75" type="line" smooth="yes"/>
      <point x="55" y="5"/>
      <point x="85" y="-5"/>
      <point x="155" y="-5" type="curve" smooth="yes"/>
    </contour>
  </outline>
</glyph>
<glyph name="x" format="1">
  <advance width="420"/>
  <unicode hex="0078"/>
  <outline>
    <contour>
      <point x="59" y="0" type="line"/>
      <point x="167" y="221" type="line" smooth="yes"/>
      <point x="169" y="226"/>
      <point x="170" y="228"/>
      <point x="174" y="228" type="curve" smooth="yes"/>
      <point x="243" y="228" type="line" smooth="yes"/>
      <point x="247" y="228"/>
      <point x="248" y="226"/>
      <point x="250" y="221" type="curve" smooth="yes"/>
      <point x="363" y="0" type="line"/>
      <point x="413" y="0" type="line"/>
      <point x="321" y="174" type="line" smooth="yes"/>
      <point x="287" y="238"/>
      <point x="286" y="254"/>
      <point x="217" y="254" type="curve"/>
      <point x="217" y="238" type="line"/>
      <point x="273" y="240"/>
      <point x="279" y="258"/>
      <point x="307" y="318" type="curve" smooth="yes"/>
      <point x="389" y="490" type="line"/>
      <point x="345" y="490" type="line"/>
      <point x="243" y="271" type="line" smooth="yes"/>
      <point x="241" y="266"/>
      <point x="240" y="264"/>
      <point x="236" y="264" type="curve" smooth="yes"/>
      <point x="186" y="264" type="line" smooth="yes"/>
      <point x="182" y="264"/>
      <point x="181" y="266"/>
      <point x="179" y="271" type="curve" smooth="yes"/>
      <point x="77" y="490" type="line"/>
      <point x="30" y="490" type="line"/>
      <point x="110" y="318" type="line" smooth="yes"/>
      <point x="138" y="258"/>
      <point x="146" y="240"/>
      <point x="202" y="238" type="curve"/>
      <point x="202" y="254" type="line"/>
      <point x="133" y="254"/>
      <point x="133" y="238"/>
      <point x="100" y="174" type="curve" smooth="yes"/>
      <point x="10" y="0" type="line"/>
    </contour>
  </outline>
</glyph>
<glyph name="y" format="1">
  <advance width="423"/>
  <unicode hex="0079"/>
  <outline>
    <contour>
      <point x="318" y="-156"/>
      <point x="315" y="-158"/>
      <point x="311" y="-158" type="curve" smooth="yes"/>
      <point x="66" y="-158" type="line"/>
      <point x="66" y="-195" type="line"/>
      <point x="263" y="-195" type="line" smooth="yes"/>
      <point x="333" y="-195"/>
      <point x="363" y="-175"/>
      <point x="363" y="-105" type="curve" smooth="yes"/>
      <point x="363" y="490" type="line"/>
      <point x="318" y="490" type="line"/>
      <point x="318" y="32" type="line"/>
      <point x="105" y="32" type="line" smooth="yes"/>
      <point x="101" y="32"/>
      <point x="98" y="34"/>
      <point x="98" y="39" type="curve" smooth="yes"/>
      <point x="98" y="490" type="line"/>
      <point x="53" y="490" type="line"/>
      <point x="53" y="85" type="line" smooth="yes"/>
      <point x="53" y="15"/>
      <point x="83" y="-5"/>
      <point x="153" y="-5" type="curve" smooth="yes"/>
      <point x="245" y="-5" type="line" smooth="yes"/>
      <point x="305" y="-5"/>
      <point x="325" y="15"/>
      <point x="325" y="75" type="curve"/>
      <point x="318" y="32" type="line"/>
      <point x="318" y="-151" type="line" smooth="yes"/>
    </contour>
    <contour>
      <point x="209" y="490" type="move" name="top"/>
    </contour>
  </outline>
</glyph>
<glyph name="z" format="1">
  <advance width="349"/>
  <unicode hex="007A"/>
  <outline>
    <contour>
      <point x="319" y="36" type="line"/>
      <point x="72" y="36" type="line" smooth="yes"/>
      <point x="66" y="36"/>
      <point x="64" y="41"/>
      <point x="68" y="48" type="curve" smooth="yes"/>
      <point x="317" y="433" type="line"/>
      <point x="317" y="473"/>
      <point x="293" y="490"/>
      <point x="251" y="490" type="curve" smooth="yes"/>
      <point x="39" y="490" type="line"/>
      <point x="39" y="454" type="line"/>
      <point x="268" y="454" type="line" smooth="yes"/>
      <point x="274" y="454"/>
      <point x="277" y="450"/>
      <point x="273" y="444" type="curve" smooth="yes"/>
      <point x="19" y="50" type="line"/>
      <point x="19" y="10"/>
      <point x="46" y="0"/>
      <point x="86" y="0" type="curve" smooth="yes"/>
      <point x="319" y="0" type="line"/>
    </contour>
    <contour>
      <point x="172" y="490" type="move" name="top"/>
    </contour>
  </outline>
</glyph>
<glyph name="braceleft" format="1">
  <advance width="297"/>
  <unicode hex="007B"/>
  <outline>
    <contour>
      <point x="146" y="634" type="line" smooth="yes"/>
      <point x="146" y="639"/>
      <point x="149" y="641"/>
      <point x="153" y="641" type="curve" smooth="yes"/>
      <point x="272" y="641" type="line"/>
      <point x="272" y="680" type="line"/>
      <point x="202" y="680" type="line" smooth="yes"/>
      <point x="132" y="680"/>
      <point x="97" y="655"/>
      <point x="97" y="585" type="curve" smooth="yes"/>
      <point x="97" y="289" type="line" smooth="yes"/>
      <point x="97" y="283"/>
      <point x="94" y="280"/>
      <point x="88" y="280" type="curve" smooth="yes"/>
      <point x="60" y="280" type="line"/>
      <point x="60" y="231" type="line"/>
      <point x="88" y="231" type="line" smooth="yes"/>
      <point x="94" y="231"/>
      <point x="97" y="228"/>
      <point x="97" y="222" type="curve" smooth="yes"/>
      <point x="97" y="-75" type="line" smooth="yes"/>
      <point x="97" y="-145"/>
      <point x="132" y="-170"/>
      <point x="202" y="-170" type="curve" smooth="yes"/>
      <point x="272" y="-170" type="line"/>
      <point x="272" y="-131" type="line"/>
      <point x="153" y="-131" type="line" smooth="yes"/>
      <point x="149" y="-131"/>
      <point x="146" y="-129"/>
      <point x="146" y="-124" type="curve" smooth="yes"/>
      <point x="146" y="185" type="line" smooth="yes"/>
      <point x="146" y="241"/>
      <point x="123" y="258"/>
      <point x="78" y="258" type="curve"/>
      <point x="78" y="253" type="line"/>
      <point x="123" y="253"/>
      <point x="146" y="269"/>
      <point x="146" y="326" type="curve" smooth="yes"/>
    </contour>
  </outline>
</glyph>
<glyph name="asciitilde" format="1">
  <advance width="402"/>
  <unicode hex="007E"/>
  <outline>
    <contour>
      <point x="87" y="237" type="line"/>
      <point x="87" y="274"/>
      <point x="100" y="287"/>
      <point x="122" y="287" type="curve" smooth="yes"/>
      <point x="160" y="287"/>
      <point x="234" y="237"/>
      <point x="290" y="237" type="curve" smooth="yes"/>
      <point x="335" y="237"/>
      <point x="357" y="258"/>
      <point x="357" y="328" type="curve"/>
      <point x="316" y="328" type="line"/>
      <point x="316" y="291"/>
      <point x="304" y="278"/>
      <point x="281" y="278" type="curve" smooth="yes"/>
      <point x="242" y="278"/>
      <point x="168" y="328"/>
      <point x="112" y="328" type="curve" smooth="yes"/>
      <point x="67" y="328"/>
      <point x="45" y="306"/>
      <point x="45" y="237" type="curve"/>
    </contour>
  </outline>
</glyph>
<glyph name="sterling" format="1">
  <advance width="422"/>
  <unicode hex="00A3"/>
  <outline>
    <contour>
      <point x="387" y="0" type="line"/>
      <point x="387" y="41" type="line"/>
      <point x="127" y="41" type="line"/>
      <point x="127" y="37" type="line"/>
      <point x="152" y="37"/>
      <point x="157" y="53"/>
      <point x="157" y="73" type="curve" smooth="yes"/>
      <point x="157" y="300" type="line"/>
      <point x="147" y="290" type="line"/>
      <point x="346" y="290" type="line"/>
      <point x="346" y="328" type="line"/>
      <point x="147" y="328" type="line"/>
      <point x="157" y="314" type="line"/>
      <point x="157" y="552" type="line" smooth="yes"/>
      <point x="157" y="557"/>
      <point x="160" y="559"/>
      <point x="164" y="559" type="curve" smooth="yes"/>
      <point x="382" y="559" type="line"/>
      <point x="382" y="600" type="line"/>
      <point x="210" y="600" type="line" smooth="yes"/>
      <point x="140" y="600"/>
      <point x="110" y="580"/>
      <point x="110" y="510" type="curve" smooth="yes"/>
      <point x="110" y="318" type="line"/>
      <point x="120" y="328" type="line"/>
      <point x="45" y="328" type="line"/>
      <point x="45" y="290" type="line"/>
      <point x="120" y="290" type="line"/>
      <point x="110" y="300" type="line"/>
      <point x="110" y="49" type="line" smooth="yes"/>
      <point x="110" y="43"/>
      <point x="108" y="41"/>
      <point x="102" y="41" type="curve" smooth="yes"/>
      <point x="45" y="41" type="line"/>
      <point x="45" y="0" type="line"/>
    </contour>
  </outline>
</glyph>
<glyph name="yen" format="1">
  <advance width="522"/>
  <unicode hex="00A5"/>
  <outline>
    <contour>
      <point x="302" y="272" type="line" smooth="yes"/>
      <point x="300" y="267"/>
      <point x="298" y="265"/>
      <point x="293" y="265" type="curve" smooth="yes"/>
      <point x="234" y="265" type="line" smooth="yes"/>
      <point x="229" y="265"/>
      <point x="227" y="267"/>
      <point x="225" y="272" type="curve" smooth="yes"/>
      <point x="86" y="601" type="line"/>
      <point x="35" y="601" type="line"/>
      <point x="163" y="303" type="line" smooth="yes"/>
      <point x="186" y="250"/>
      <point x="196" y="234"/>
      <point x="239" y="231" type="curve"/>
      <point x="239" y="0" type="line"/>
      <point x="285" y="0" type="line"/>
      <point x="285" y="231" type="line"/>
      <point x="329" y="234"/>
      <point x="337" y="250"/>
      <point x="360" y="303" type="curve" smooth="yes"/>
      <point x="487" y="600" type="line"/>
      <point x="438" y="600" type="line"/>
    </contour>
    <contour>
      <point x="248" y="130" type="line"/>
      <point x="248" y="166" type="line"/>
      <point x="103" y="166" type="line"/>
      <point x="103" y="130" type="line"/>
    </contour>
    <contour>
      <point x="248" y="229" type="line"/>
      <point x="248" y="265" type="line"/>
      <point x="103" y="265" type="line"/>
      <point x="103" y="229" type="line"/>
    </contour>
    <contour>
      <point x="422" y="130" type="line"/>
      <point x="422" y="166" type="line"/>
      <point x="277" y="166" type="line"/>
      <point x="277" y="130" type="line"/>
    </contour>
    <contour>
      <point x="422" y="229" type="line"/>
      <point x="422" y="265" type="line"/>
      <point x="277" y="265" type="line"/>
      <point x="277" y="229" type="line"/>
    </contour>
  </outline>
</glyph>
<glyph name="brokenbar" format="1">
  <advance width="280"/>
  <unicode hex="00A6"/>
  <outline>
    <contour>
      <point x="160" y="-55" type="line"/>
      <point x="160" y="225" type="line"/>
      <point x="120" y="225" type="line"/>
      <point x="120" y="-55" type="line"/>
    </contour>
    <contour>
      <point x="160" y="395" type="line"/>
      <point x="160" y="675" type="line"/>
      <point x="120" y="675" type="line"/>
      <point x="120" y="395" type="line"/>
    </contour>
  </outline>
</glyph>
<glyph name="section" format="1">
  <advance width="435"/>
  <unicode hex="00A7"/>
  <outline>
    <contour>
      <point x="346" y="-87"/>
      <point x="385" y="-50"/>
      <point x="385" y="20" type="curve" smooth="yes"/>
      <point x="385" y="239" type="line" smooth="yes"/>
      <point x="385" y="299"/>
      <point x="365" y="309"/>
      <point x="311" y="332" type="curve" smooth="yes"/>
      <point x="111" y="417" type="line" smooth="yes"/>
      <point x="102" y="421"/>
      <point x="98" y="425"/>
      <point x="98" y="435" type="curve" smooth="yes"/>
      <point x="98" y="583" type="line" smooth="yes"/>
      <point x="98" y="591"/>
      <point x="103" y="595"/>
      <point x="110" y="595" type="curve" smooth="yes"/>
      <point x="372" y="595" type="line"/>
      <point x="372" y="635" type="line"/>
      <point x="164" y="638" type="line" smooth="yes"/>
      <point x="89" y="639"/>
      <point x="50" y="602"/>
      <point x="50" y="532" type="curve" smooth="yes"/>
      <point x="50" y="313" type="line" smooth="yes"/>
      <point x="50" y="253"/>
      <point x="70" y="243"/>
      <point x="124" y="220" type="curve" smooth="yes"/>
      <point x="324" y="135" type="line" smooth="yes"/>
      <point x="333" y="131"/>
      <point x="337" y="127"/>
      <point x="337" y="117" type="curve" smooth="yes"/>
      <point x="337" y="-31" type="line" smooth="yes"/>
      <point x="337" y="-39"/>
      <point x="332" y="-43"/>
      <point x="325" y="-43" type="curve" smooth="yes"/>
      <point x="63" y="-43" type="line"/>
      <point x="63" y="-83" type="line"/>
      <point x="271" y="-86" type="line" smooth="yes"/>
    </contour>
    <contour>
      <point x="343" y="175" type="line"/>
      <point x="116" y="272" type="line" smooth="yes"/>
      <point x="99" y="279"/>
      <point x="98" y="285"/>
      <point x="98" y="309" type="curve" smooth="yes"/>
      <point x="98" y="380" type="line"/>
      <point x="93" y="377" type="line"/>
      <point x="319" y="280" type="line" smooth="yes"/>
      <point x="336" y="273"/>
      <point x="337" y="267"/>
      <point x="337" y="243" type="curve" smooth="yes"/>
      <point x="337" y="172" type="line"/>
    </contour>
  </outline>
</glyph>
<glyph name="copyright" format="1">
  <advance width="509"/>
  <unicode hex="00A9"/>
  <outline>
    <contour>
      <point x="384" y="606" type="line" smooth="yes"/>
      <point x="388" y="606"/>
      <point x="391" y="604"/>
      <point x="391" y="599" type="curve" smooth="yes"/>
      <point x="391" y="227" type="line" smooth="yes"/>
      <point x="391" y="222"/>
      <point x="388" y="220"/>
      <point x="384" y="220" type="curve" smooth="yes"/>
      <point x="125" y="220" type="line" smooth="yes"/>
      <point x="121" y="220"/>
      <point x="118" y="222"/>
      <point x="118" y="227" type="curve" smooth="yes"/>
      <point x="118" y="599" type="line" smooth="yes"/>
      <point x="118" y="604"/>
      <point x="121" y="606"/>
      <point x="125" y="606" type="curve" smooth="yes"/>
    </contour>
    <contour>
      <point x="75" y="273" type="line" smooth="yes"/>
      <point x="75" y="206"/>
      <point x="102" y="186"/>
      <point x="172" y="186" type="curve" smooth="yes"/>
      <point x="337" y="186" type="line" smooth="yes"/>
      <point x="407" y="186"/>
      <point x="434" y="206"/>
      <point x="434" y="273" type="curve" smooth="yes"/>
      <point x="434" y="553" type="line" smooth="yes"/>
      <point x="434" y="620"/>
      <point x="407" y="640"/>
      <point x="337" y="640" type="curve" smooth="yes"/>
      <point x="172" y="640" type="line" smooth="yes"/>
      <point x="102" y="640"/>
      <point x="75" y="620"/>
      <point x="75" y="553" type="curve" smooth="yes"/>
    </contour>
    <contour>
      <point x="350" y="256" type="line"/>
      <point x="350" y="290" type="line"/>
      <point x="212" y="290" type="line" smooth="yes"/>
      <point x="208" y="290"/>
      <point x="205" y="292"/>
      <point x="205" y="297" type="curve" smooth="yes"/>
      <point x="205" y="529" type="line" smooth="yes"/>
      <point x="205" y="534"/>
      <point x="208" y="536"/>
      <point x="212" y="536" type="curve" smooth="yes"/>
      <point x="350" y="536" type="line"/>
      <point x="350" y="570" type="line"/>
      <point x="256" y="570" type="line" smooth="yes"/>
      <point x="190" y="570"/>
      <point x="162" y="551"/>
      <point x="162" y="484" type="curve" smooth="yes"/>
      <point x="162" y="342" type="line" smooth="yes"/>
      <point x="162" y="276"/>
      <point x="190" y="256"/>
      <point x="256" y="256" type="curve" smooth="yes"/>
    </contour>
  </outline>
</glyph>
<glyph name="ordfeminine" format="1">
  <advance width="320"/>
  <unicode hex="00AA"/>
  <outline>
    <contour>
      <point x="157" y="310" type="line" smooth="yes"/>
      <point x="217" y="310"/>
      <point x="237" y="330"/>
      <point x="237" y="390" type="curve"/>
      <point x="230" y="344" type="line"/>
      <point x="238" y="315" type="line"/>
      <point x="270" y="315" type="line"/>
      <point x="270" y="575" type="line" smooth="yes"/>
      <point x="270" y="645"/>
      <point x="246" y="665"/>
      <point x="176" y="665" type="curve" smooth="yes"/>
      <point x="58" y="665" type="line"/>
      <point x="58" y="631" type="line"/>
      <point x="223" y="631" type="line" smooth="yes"/>
      <point x="227" y="631"/>
      <point x="230" y="629"/>
      <point x="230" y="624" type="curve" smooth="yes"/>
      <point x="230" y="344" type="line"/>
      <point x="88" y="344" type="line" smooth="yes"/>
      <point x="84" y="344"/>
      <point x="81" y="346"/>
      <point x="81" y="351" type="curve" smooth="yes"/>
      <point x="81" y="480" type="line" smooth="yes"/>
      <point x="81" y="485"/>
      <point x="84" y="487"/>
      <point x="88" y="487" type="curve" smooth="yes"/>
      <point x="237" y="487" type="line"/>
      <point x="237" y="520" type="line"/>
      <point x="135" y="520" type="line" smooth="yes"/>
      <point x="65" y="520"/>
      <point x="40" y="500"/>
      <point x="40" y="430" type="curve" smooth="yes"/>
      <point x="40" y="400" type="line" smooth="yes"/>
      <point x="40" y="330"/>
      <point x="65" y="310"/>
      <point x="135" y="310" type="curve" smooth="yes"/>
    </contour>
  </outline>
</glyph>
<glyph name="guillemotleft" format="1">
  <advance width="346"/>
  <unicode hex="00AB"/>
  <outline>
    <contour>
      <point x="37" y="255"/>
      <point x="38" y="251"/>
      <point x="46" y="240" type="curve" smooth="yes"/>
      <point x="152" y="87" type="line"/>
      <point x="197" y="87" type="line"/>
      <point x="93" y="247" type="line" smooth="yes"/>
      <point x="89" y="253"/>
      <point x="89" y="256"/>
      <point x="93" y="263" type="curve" smooth="yes"/>
      <point x="201" y="422" type="line"/>
      <point x="157" y="422" type="line"/>
      <point x="46" y="267" type="line" smooth="yes"/>
    </contour>
    <contour>
      <point x="159" y="255"/>
      <point x="160" y="251"/>
      <point x="167" y="240" type="curve" smooth="yes"/>
      <point x="270" y="87" type="line"/>
      <point x="317" y="87" type="line"/>
      <point x="214" y="247" type="line" smooth="yes"/>
      <point x="210" y="253"/>
      <point x="210" y="256"/>
      <point x="214" y="263" type="curve" smooth="yes"/>
      <point x="321" y="422" type="line"/>
      <point x="275" y="422" type="line"/>
      <point x="167" y="267" type="line" smooth="yes"/>
    </contour>
  </outline>
</glyph>
<glyph name="logicalnot" format="1">
  <advance width="510"/>
  <unicode hex="00AC"/>
  <outline>
    <contour>
      <point x="450" y="317" type="line"/>
      <point x="40" y="317" type="line"/>
      <point x="40" y="280" type="line"/>
      <point x="408" y="280" type="line"/>
      <point x="408" y="155" type="line"/>
      <point x="450" y="155" type="line"/>
    </contour>
  </outline>
</glyph>
<glyph name="registered" format="1">
  <advance width="519"/>
  <unicode hex="00AE"/>
  <outline>
    <contour>
      <point x="394" y="606" type="line" smooth="yes"/>
      <point x="398" y="606"/>
      <point x="401" y="604"/>
      <point x="401" y="599" type="curve" smooth="yes"/>
      <point x="401" y="227" type="line" smooth="yes"/>
      <point x="401" y="222"/>
      <point x="398" y="220"/>
      <point x="394" y="220" type="curve" smooth="yes"/>
      <point x="125" y="220" type="line" smooth="yes"/>
      <point x="121" y="220"/>
      <point x="118" y="222"/>
      <point x="118" y="227" type="curve" smooth="yes"/>
      <point x="118" y="599" type="line" smooth="yes"/>
      <point x="118" y="604"/>
      <point x="121" y="606"/>
      <point x="125" y="606" type="curve" smooth="yes"/>
    </contour>
    <contour>
      <point x="75" y="273" type="line" smooth="yes"/>
      <point x="75" y="206"/>
      <point x="102" y="186"/>
      <point x="172" y="186" type="curve" smooth="yes"/>
      <point x="347" y="186" type="line" smooth="yes"/>
      <point x="417" y="186"/>
      <point x="444" y="206"/>
      <point x="444" y="273" type="curve" smooth="yes"/>
      <point x="444" y="553" type="line" smooth="yes"/>
      <point x="444" y="620"/>
      <point x="417" y="640"/>
      <point x="347" y="640" type="curve" smooth="yes"/>
      <point x="172" y="640" type="line" smooth="yes"/>
      <point x="102" y="640"/>
      <point x="75" y="620"/>
      <point x="75" y="553" type="curve" smooth="yes"/>
    </contour>
    <contour>
      <point x="203" y="246" type="line"/>
      <point x="202" y="391" type="line"/>
      <point x="184" y="379" type="line"/>
      <point x="274" y="379" type="line" smooth="yes"/>
      <point x="284" y="379"/>
      <point x="288" y="376"/>
      <point x="290" y="369" type="curve" smooth="yes"/>
      <point x="330" y="246" type="line"/>
      <point x="371" y="246" type="line"/>
      <point x="346" y="322" type="line" smooth="yes"/>
      <point x="331" y="368"/>
      <point x="326" y="385"/>
      <point x="293" y="390" type="curve"/>
      <point x="293" y="379" type="line"/>
      <point x="337" y="379"/>
      <point x="367" y="407"/>
      <point x="367" y="468" type="curve" smooth="yes"/>
      <point x="367" y="486" type="line" smooth="yes"/>
      <point x="367" y="545"/>
      <point x="338" y="575"/>
      <point x="273" y="573" type="curve" smooth="yes"/>
      <point x="160" y="570" type="line"/>
      <point x="160" y="246" type="line"/>
    </contour>
    <contour>
      <point x="202" y="550" type="line"/>
      <point x="192" y="538" type="line"/>
      <point x="312" y="538" type="line" smooth="yes"/>
      <point x="320" y="538"/>
      <point x="324" y="534"/>
      <point x="324" y="526" type="curve" smooth="yes"/>
      <point x="324" y="426" type="line" smooth="yes"/>
      <point x="324" y="418"/>
      <point x="319" y="414"/>
      <point x="312" y="414" type="curve" smooth="yes"/>
      <point x="191" y="414" type="line"/>
      <point x="202" y="401" type="line"/>
    </contour>
  </outline>
</glyph>
<glyph name="macron" format="1">
  <advance width="362"/>
  <unicode hex="00AF"/>
  <outline>
    <contour>
      <point x="302" y="626" type="line"/>
      <point x="60" y="626" type="line"/>
      <point x="60" y="589" type="line"/>
      <point x="302" y="589" type="line"/>
    </contour>
    <contour>
      <point x="181" y="490" type="move" name="_top"/>
    </contour>
  </outline>
</glyph>
<glyph name="degree" format="1">
  <advance width="276"/>
  <unicode hex="00B0"/>
  <outline>
    <contour>
      <point x="35" y="451" type="line" smooth="yes"/>
      <point x="35" y="405"/>
      <point x="57" y="382"/>
      <point x="112" y="382" type="curve" smooth="yes"/>
      <point x="163" y="382" type="line" smooth="yes"/>
      <point x="218" y="382"/>
      <point x="241" y="405"/>
      <point x="241" y="451" type="curve" smooth="yes"/>
      <point x="241" y="571" type="line" smooth="yes"/>
      <point x="241" y="618"/>
      <point x="218" y="640"/>
      <point x="163" y="640" type="curve" smooth="yes"/>
      <point x="112" y="640" type="line" smooth="yes"/>
      <point x="57" y="640"/>
      <point x="35" y="618"/>
      <point x="35" y="571" type="curve" smooth="yes"/>
    </contour>
    <contour>
      <point x="194" y="606" type="line" smooth="yes"/>
      <point x="198" y="606"/>
      <point x="201" y="604"/>
      <point x="201" y="599" type="curve" smooth="yes"/>
      <point x="201" y="423" type="line" smooth="yes"/>
      <point x="201" y="418"/>
      <point x="198" y="416"/>
      <point x="194" y="416" type="curve" smooth="yes"/>
      <point x="82" y="416" type="line" smooth="yes"/>
      <point x="78" y="416"/>
      <point x="75" y="418"/>
      <point x="75" y="423" type="curve" smooth="yes"/>
      <point x="75" y="599" type="line" smooth="yes"/>
      <point x="75" y="604"/>
      <point x="78" y="606"/>
      <point x="82" y="606" type="curve" smooth="yes"/>
    </contour>
  </outline>
</glyph>
<glyph name="plusminus" format="1">
  <advance width="520"/>
  <unicode hex="00B1"/>
  <outline>
    <contour>
      <point x="460" y="347" type="line"/>
      <point x="60" y="347" type="line"/>
      <point x="60" y="307" type="line"/>
      <point x="460" y="307" type="line"/>
    </contour>
    <contour>
      <point x="281" y="148" type="line"/>
      <point x="281" y="506" type="line"/>
      <point x="239" y="506" type="line"/>
      <point x="239" y="148" type="line"/>
    </contour>
    <contour>
      <point x="460" y="87" type="line"/>
      <point x="60" y="87" type="line"/>
      <point x="60" y="47" type="line"/>
      <point x="460" y="47" type="line"/>
    </contour>
  </outline>
</glyph>
<glyph name="twosuperior" format="1">
  <advance width="312"/>
  <unicode hex="00B2"/>
  <outline>
    <contour>
      <point x="53" y="411"/>
      <point x="41" y="407"/>
      <point x="41" y="370" type="curve" smooth="yes"/>
      <point x="41" y="249" type="line"/>
      <point x="266" y="249" type="line"/>
      <point x="266" y="281" type="line"/>
      <point x="81" y="281" type="line"/>
      <point x="81" y="368" type="line" smooth="yes"/>
      <point x="81" y="382"/>
      <point x="82" y="385"/>
      <point x="92" y="390" type="curve" smooth="yes"/>
      <point x="225" y="452" type="line" smooth="yes"/>
      <point x="257" y="467"/>
      <point x="266" y="477"/>
      <point x="266" y="506" type="curve" smooth="yes"/>
      <point x="266" y="573" type="line" smooth="yes"/>
      <point x="266" y="615"/>
      <point x="242" y="639"/>
      <point x="196" y="638" type="curve" smooth="yes"/>
      <point x="52" y="635" type="line"/>
      <point x="52" y="603" type="line"/>
      <point x="218" y="603" type="line" smooth="yes"/>
      <point x="223" y="603"/>
      <point x="226" y="601"/>
      <point x="226" y="596" type="curve" smooth="yes"/>
      <point x="226" y="499" type="line" smooth="yes"/>
      <point x="226" y="493"/>
      <point x="223" y="492"/>
      <point x="217" y="489" type="curve" smooth="yes"/>
      <point x="86" y="427" type="line" smooth="yes"/>
    </contour>
  </outline>
</glyph>
<glyph name="threesuperior" format="1">
  <advance width="332"/>
  <unicode hex="00B3"/>
  <outline>
    <contour>
      <point x="228" y="248"/>
      <point x="252" y="269"/>
      <point x="252" y="312" type="curve" smooth="yes"/>
      <point x="252" y="400" type="line" smooth="yes"/>
      <point x="252" y="445"/>
      <point x="230" y="457"/>
      <point x="185" y="456" type="curve"/>
      <point x="179" y="444" type="line"/>
      <point x="224" y="444"/>
      <point x="249" y="458"/>
      <point x="249" y="501" type="curve" smooth="yes"/>
      <point x="249" y="575" type="line" smooth="yes"/>
      <point x="249" y="621"/>
      <point x="228" y="639"/>
      <point x="182" y="638" type="curve" smooth="yes"/>
      <point x="28" y="635" type="line"/>
      <point x="28" y="603" type="line"/>
      <point x="201" y="603" type="line" smooth="yes"/>
      <point x="206" y="603"/>
      <point x="209" y="601"/>
      <point x="209" y="596" type="curve" smooth="yes"/>
      <point x="209" y="474" type="line" smooth="yes"/>
      <point x="209" y="470"/>
      <point x="206" y="467"/>
      <point x="201" y="467" type="curve" smooth="yes"/>
      <point x="59" y="467" type="line"/>
      <point x="59" y="435" type="line"/>
      <point x="205" y="435" type="line" smooth="yes"/>
      <point x="209" y="435"/>
      <point x="212" y="433"/>
      <point x="212" y="428" type="curve" smooth="yes"/>
      <point x="212" y="288" type="line" smooth="yes"/>
      <point x="212" y="284"/>
      <point x="209" y="281"/>
      <point x="205" y="281" type="curve" smooth="yes"/>
      <point x="25" y="281" type="line"/>
      <point x="25" y="249" type="line"/>
      <point x="182" y="248" type="line" smooth="yes"/>
    </contour>
  </outline>
</glyph>
<glyph name="acute" format="1">
  <advance width="250"/>
  <unicode hex="00B4"/>
  <outline>
    <contour>
      <point x="62" y="554" type="line"/>
      <point x="122" y="679" type="line"/>
      <point x="178" y="678" type="line"/>
      <point x="99" y="554" type="line"/>
    </contour>
    <contour>
      <point x="86" y="490" type="move" name="_top"/>
    </contour>
  </outline>
</glyph>
<glyph name="uni00B5" format="1">
  <advance width="425"/>
  <unicode hex="00B5"/>
  <outline>
    <contour>
      <point x="99" y="-190" type="line"/>
      <point x="94" y="17" type="line"/>
      <point x="84" y="17" type="line"/>
      <point x="94" y="-1"/>
      <point x="112" y="-5"/>
      <point x="154" y="-5" type="curve" smooth="yes"/>
      <point x="247" y="-5" type="line" smooth="yes"/>
      <point x="307" y="-5"/>
      <point x="327" y="15"/>
      <point x="327" y="75" type="curve"/>
      <point x="320" y="32" type="line"/>
      <point x="328" y="0" type="line"/>
      <point x="365" y="0" type="line"/>
      <point x="365" y="490" type="line"/>
      <point x="320" y="490" type="line"/>
      <point x="320" y="32" type="line"/>
      <point x="106" y="32" type="line" smooth="yes"/>
      <point x="102" y="32"/>
      <point x="99" y="34"/>
      <point x="99" y="39" type="curve" smooth="yes"/>
      <point x="99" y="490" type="line"/>
      <point x="54" y="490" type="line"/>
      <point x="54" y="-190" type="line"/>
    </contour>
  </outline>
</glyph>
<glyph name="paragraph" format="1">
  <advance width="461"/>
  <unicode hex="00B6"/>
  <outline>
    <contour>
      <point x="341" y="0" type="line"/>
      <point x="386" y="0" type="line"/>
      <point x="386" y="635" type="line"/>
      <point x="150" y="638" type="line" smooth="yes"/>
      <point x="75" y="639"/>
      <point x="40" y="610"/>
      <point x="40" y="535" type="curve" smooth="yes"/>
      <point x="40" y="450" type="line" smooth="yes"/>
      <point x="40" y="375"/>
      <point x="75" y="347"/>
      <point x="150" y="347" type="curve" smooth="yes"/>
      <point x="245" y="347" type="line"/>
      <point x="232" y="360" type="line"/>
      <point x="231" y="0" type="line"/>
      <point x="276" y="0" type="line"/>
      <point x="276" y="611" type="line"/>
      <point x="263" y="598" type="line"/>
      <point x="354" y="598" type="line"/>
      <point x="341" y="611" type="line"/>
    </contour>
  </outline>
</glyph>
<glyph name="periodcentered" format="1">
  <advance width="166"/>
  <unicode hex="00B7"/>
  <outline>
    <contour>
      <point x="119" y="250" type="line"/>
      <point x="119" y="337" type="line"/>
      <point x="47" y="337" type="line"/>
      <point x="47" y="250" type="line"/>
    </contour>
  </outline>
</glyph>
<glyph name="cedilla" format="1">
  <advance width="248"/>
  <unicode hex="00B8"/>
  <outline>
    <contour>
      <point x="162" y="-153" type="line" smooth="yes"/>
      <point x="162" y="-158"/>
      <point x="159" y="-160"/>
      <point x="155" y="-160" type="curve" smooth="yes"/>
      <point x="58" y="-160" type="line"/>
      <point x="58" y="-200" type="line"/>
      <point x="117" y="-200" type="line" smooth="yes"/>
      <point x="176" y="-200"/>
      <point x="206" y="-175"/>
      <point x="206" y="-120" type="curve" smooth="yes"/>
      <point x="206" y="-118" type="line" smooth="yes"/>
      <point x="206" y="-70"/>
      <point x="177" y="-54"/>
      <point x="126" y="-54" type="curve" smooth="yes"/>
      <point x="111" y="-54" type="line"/>
      <point x="123" y="4" type="line"/>
      <point x="93" y="8" type="line"/>
      <point x="71" y="-89" type="line"/>
      <point x="155" y="-89" type="line" smooth="yes"/>
      <point x="159" y="-89"/>
      <point x="162" y="-91"/>
      <point x="162" y="-96" type="curve" smooth="yes"/>
    </contour>
    <contour>
      <point x="124" y="0" type="move" name="_bottom"/>
    </contour>
  </outline>
</glyph>
<glyph name="onesuperior" format="1">
  <advance width="306"/>
  <unicode hex="00B9"/>
  <outline>
    <contour>
      <point x="274" y="281" type="line"/>
      <point x="44" y="281" type="line"/>
      <point x="44" y="249" type="line"/>
      <point x="274" y="249" type="line"/>
    </contour>
    <contour>
      <point x="34" y="556" type="line"/>
      <point x="53" y="528" type="line"/>
      <point x="157" y="596" type="line"/>
      <point x="151" y="599" type="line"/>
      <point x="151" y="249" type="line"/>
      <point x="191" y="249" type="line"/>
      <point x="191" y="635" type="line"/>
      <point x="152" y="635" type="line"/>
    </contour>
  </outline>
</glyph>
<glyph name="AE" format="1">
  <advance width="753"/>
  <unicode hex="00C6"/>
  <outline>
    <contour>
      <point x="51" y="0" type="line"/>
      <point x="142" y="210" type="line"/>
      <point x="128" y="200" type="line"/>
      <point x="390" y="200" type="line"/>
      <point x="380" y="210" type="line"/>
      <point x="380" y="0" type="line"/>
      <point x="713" y="0" type="line"/>
      <point x="713" y="40" type="line"/>
      <point x="416" y="40" type="line"/>
      <point x="426" y="30" type="line"/>
      <point x="426" y="310" type="line"/>
      <point x="416" y="300" type="line"/>
      <point x="692" y="300" type="line"/>
      <point x="692" y="340" type="line"/>
      <point x="416" y="340" type="line"/>
      <point x="426" y="329" type="line"/>
      <point x="426" y="605" type="line"/>
      <point x="416" y="595" type="line"/>
      <point x="708" y="595" type="line"/>
      <point x="708" y="635" type="line"/>
      <point x="350" y="635" type="line" smooth="yes"/>
      <point x="282" y="635"/>
      <point x="277" y="620"/>
      <point x="248" y="554" type="curve" smooth="yes"/>
      <point x="4" y="0" type="line"/>
    </contour>
    <contour>
      <point x="307" y="588" type="line" smooth="yes"/>
      <point x="309" y="593"/>
      <point x="311" y="595"/>
      <point x="316" y="595" type="curve" smooth="yes"/>
      <point x="390" y="595" type="line"/>
      <point x="380" y="605" type="line"/>
      <point x="380" y="230" type="line"/>
      <point x="390" y="240" type="line"/>
      <point x="145" y="240" type="line"/>
      <point x="151" y="230" type="line"/>
    </contour>
  </outline>
</glyph>
<glyph name="multiply" format="1">
  <advance width="432"/>
  <unicode hex="00D7"/>
  <outline>
    <contour>
      <point x="343" y="453" type="line"/>
      <point x="60" y="170" type="line"/>
      <point x="89" y="141" type="line"/>
      <point x="372" y="424" type="line"/>
    </contour>
    <contour>
      <point x="372" y="170" type="line"/>
      <point x="89" y="453" type="line"/>
      <point x="60" y="424" type="line"/>
      <point x="343" y="141" type="line"/>
    </contour>
  </outline>
</glyph>
<glyph name="Oslash" format="1">
  <advance width="535"/>
  <unicode hex="00D8"/>
  <outline>
    <contour>
      <point x="427" y="680" type="line"/>
      <point x="71" y="-48" type="line"/>
      <point x="111" y="-48" type="line"/>
      <point x="467" y="680" type="line"/>
    </contour>
    <component base="O"/>
  </outline>
</glyph>
<glyph name="Thorn" format="1">
  <advance width="492"/>
  <unicode hex="00DE"/>
  <outline>
    <contour>
      <point x="122" y="0" type="line"/>
      <point x="121" y="156" type="line"/>
      <point x="109" y="144" type="line"/>
      <point x="337" y="144" type="line" smooth="yes"/>
      <point x="412" y="144"/>
      <point x="447" y="172"/>
      <point x="447" y="247" type="curve" smooth="yes"/>
      <point x="447" y="417" type="line" smooth="yes"/>
      <point x="447" y="492"/>
      <point x="412" y="518"/>
      <point x="337" y="518" type="curve" smooth="yes"/>
      <point x="109" y="518" type="line"/>
      <point x="121" y="509" type="line"/>
      <point x="121" y="635" type="line"/>
      <point x="75" y="635" type="line"/>
      <point x="75" y="0" type="line"/>
    </contour>
    <contour>
      <point x="121" y="490" type="line"/>
      <point x="109" y="478" type="line"/>
      <point x="386" y="478" type="line" smooth="yes"/>
      <point x="394" y="478"/>
      <point x="398" y="474"/>
      <point x="398" y="466" type="curve" smooth="yes"/>
      <point x="398" y="196" type="line" smooth="yes"/>
      <point x="398" y="188"/>
      <point x="393" y="184"/>
      <point x="386" y="184" type="curve" smooth="yes"/>
      <point x="109" y="184" type="line"/>
      <point x="121" y="171" type="line"/>
    </contour>
  </outline>
</glyph>
<glyph name="germandbls" format="1">
  <advance width="446"/>
  <unicode hex="00DF"/>
  <outline>
    <contour>
      <point x="78" y="464" type="line"/>
      <point x="78" y="0" type="line"/>
      <point x="123" y="0" type="line"/>
      <point x="123" y="589" type="line" smooth="yes"/>
      <point x="123" y="597"/>
      <point x="127" y="601"/>
      <point x="135" y="601" type="curve" smooth="yes"/>
      <point x="323" y="601" type="line" smooth="yes"/>
      <point x="331" y="601"/>
      <point x="335" y="597"/>
      <point x="335" y="589" type="curve" smooth="yes"/>
      <point x="335" y="374" type="line" smooth="yes"/>
      <point x="335" y="366"/>
      <point x="331" y="362"/>
      <point x="323" y="362" type="curve" smooth="yes"/>
      <point x="174" y="362" type="line"/>
      <point x="174" y="325" type="line"/>
      <point x="338" y="325" type="line" smooth="yes"/>
      <point x="346" y="325"/>
      <point x="350" y="321"/>
      <point x="350" y="313" type="curve" smooth="yes"/>
      <point x="350" y="46" type="line" smooth="yes"/>
      <point x="350" y="38"/>
      <point x="345" y="34"/>
      <point x="338" y="34" type="curve" smooth="yes"/>
      <point x="174" y="34" type="line"/>
      <point x="174" y="-3" type="line"/>
      <point x="281" y="-3" type="line" smooth="yes"/>
      <point x="357" y="-3"/>
      <point x="396" y="33"/>
      <point x="396" y="103" type="curve" smooth="yes"/>
      <point x="396" y="262" type="line" smooth="yes"/>
      <point x="396" y="332"/>
      <point x="364" y="355"/>
      <point x="289" y="354" type="curve"/>
      <point x="269" y="335" type="line"/>
      <point x="344" y="335"/>
      <point x="381" y="358"/>
      <point x="381" y="428" type="curve" smooth="yes"/>
      <point x="381" y="535" type="line" smooth="yes"/>
      <point x="381" y="610"/>
      <point x="346" y="638"/>
      <point x="271" y="638" type="curve" smooth="yes"/>
      <point x="184" y="638" type="line" smooth="yes"/>
      <point x="113" y="638"/>
      <point x="78" y="610"/>
      <point x="78" y="535" type="curve" smooth="yes"/>
      <point x="78" y="480" type="line"/>
      <point x="88" y="490" type="line"/>
      <point x="19" y="490" type="line"/>
      <point x="19" y="454" type="line"/>
      <point x="88" y="454" type="line"/>
    </contour>
  </outline>
</glyph>
<glyph name="ae" format="1">
  <advance width="656"/>
  <unicode hex="00E6"/>
  <outline>
    <contour>
      <point x="601" y="-5" type="line"/>
      <point x="601" y="32" type="line"/>
      <point x="353" y="32" type="line" smooth="yes"/>
      <point x="349" y="32"/>
      <point x="346" y="34"/>
      <point x="346" y="39" type="curve" smooth="yes"/>
      <point x="346" y="451" type="line" smooth="yes"/>
      <point x="346" y="456"/>
      <point x="349" y="458"/>
      <point x="353" y="458" type="curve" smooth="yes"/>
      <point x="558" y="458" type="line" smooth="yes"/>
      <point x="562" y="458"/>
      <point x="565" y="456"/>
      <point x="565" y="451" type="curve" smooth="yes"/>
      <point x="565" y="255" type="line"/>
      <point x="339" y="255" type="line"/>
      <point x="339" y="219" type="line"/>
      <point x="611" y="219" type="line"/>
      <point x="611" y="405" type="line" smooth="yes"/>
      <point x="611" y="475"/>
      <point x="581" y="495"/>
      <point x="511" y="495" type="curve" smooth="yes"/>
      <point x="394" y="495" type="line" smooth="yes"/>
      <point x="336" y="495"/>
      <point x="318" y="481"/>
      <point x="312" y="436" type="curve"/>
      <point x="334" y="436" type="line"/>
      <point x="327" y="475"/>
      <point x="301" y="490"/>
      <point x="246" y="490" type="curve" smooth="yes"/>
      <point x="58" y="490" type="line"/>
      <point x="58" y="453" type="line"/>
      <point x="293" y="453" type="line" smooth="yes"/>
      <point x="297" y="453"/>
      <point x="300" y="451"/>
      <point x="300" y="446" type="curve" smooth="yes"/>
      <point x="300" y="65" type="line" smooth="yes"/>
      <point x="300" y="15"/>
      <point x="329" y="-5"/>
      <point x="389" y="-5" type="curve" smooth="yes"/>
    </contour>
    <contour>
      <point x="234" y="-5" type="line" smooth="yes"/>
      <point x="276" y="-5"/>
      <point x="300" y="5"/>
      <point x="307" y="32" type="curve"/>
      <point x="88" y="32" type="line" smooth="yes"/>
      <point x="84" y="32"/>
      <point x="81" y="34"/>
      <point x="81" y="39" type="curve" smooth="yes"/>
      <point x="81" y="212" type="line" smooth="yes"/>
      <point x="81" y="217"/>
      <point x="84" y="219"/>
      <point x="88" y="219" type="curve" smooth="yes"/>
      <point x="307" y="219" type="line"/>
      <point x="307" y="255" type="line"/>
      <point x="135" y="255" type="line" smooth="yes"/>
      <point x="65" y="255"/>
      <point x="35" y="235"/>
      <point x="35" y="165" type="curve" smooth="yes"/>
      <point x="35" y="85" type="line" smooth="yes"/>
      <point x="35" y="15"/>
      <point x="65" y="-5"/>
      <point x="135" y="-5" type="curve" smooth="yes"/>
    </contour>
  </outline>
</glyph>
<glyph name="eth" format="1">
  <advance width="422"/>
  <unicode hex="00F0"/>
  <outline>
    <contour>
      <point x="261" y="-5" type="line" smooth="yes"/>
      <point x="331" y="-5"/>
      <point x="361" y="15"/>
      <point x="361" y="85" type="curve" smooth="yes"/>
      <point x="361" y="582" type="line" smooth="yes"/>
      <point x="361" y="652"/>
      <point x="331" y="672"/>
      <point x="261" y="672" type="curve" smooth="yes"/>
      <point x="117" y="672" type="line"/>
      <point x="117" y="635" type="line"/>
      <point x="308" y="635" type="line" smooth="yes"/>
      <point x="312" y="635"/>
      <point x="315" y="633"/>
      <point x="315" y="628" type="curve" smooth="yes"/>
      <point x="315" y="469" type="line"/>
      <point x="326" y="480" type="line"/>
      <point x="150" y="480" type="line" smooth="yes"/>
      <point x="80" y="480"/>
      <point x="50" y="460"/>
      <point x="50" y="390" type="curve" smooth="yes"/>
      <point x="50" y="85" type="line" smooth="yes"/>
      <point x="50" y="15"/>
      <point x="80" y="-5"/>
      <point x="150" y="-5" type="curve" smooth="yes"/>
    </contour>
    <contour>
      <point x="99" y="32"/>
      <point x="96" y="34"/>
      <point x="96" y="39" type="curve" smooth="yes"/>
      <point x="96" y="436" type="line" smooth="yes"/>
      <point x="96" y="441"/>
      <point x="99" y="443"/>
      <point x="103" y="443" type="curve" smooth="yes"/>
      <point x="325" y="443" type="line"/>
      <point x="315" y="453" type="line"/>
      <point x="315" y="39" type="line" smooth="yes"/>
      <point x="315" y="34"/>
      <point x="312" y="32"/>
      <point x="308" y="32" type="curve" smooth="yes"/>
      <point x="103" y="32" type="line" smooth="yes"/>
    </contour>
    <contour>
      <point x="401" y="655" type="line"/>
      <point x="384" y="682" type="line"/>
      <point x="210" y="571" type="line"/>
      <point x="227" y="544" type="line"/>
    </contour>
  </outline>
</glyph>
<glyph name="divide" format="1">
  <advance width="470"/>
  <unicode hex="00F7"/>
  <outline>
    <contour>
      <point x="410" y="277" type="line"/>
      <point x="410" y="317" type="line"/>
      <point x="60" y="317" type="line"/>
      <point x="60" y="277" type="line"/>
    </contour>
    <contour>
      <point x="265" y="96" type="line"/>
      <point x="265" y="179" type="line"/>
      <point x="204" y="179" type="line"/>
      <point x="204" y="96" type="line"/>
    </contour>
    <contour>
      <point x="265" y="415" type="line"/>
      <point x="265" y="498" type="line"/>
      <point x="204" y="498" type="line"/>
      <point x="204" y="415" type="line"/>
    </contour>
  </outline>
</glyph>
<glyph name="thorn" format="1">
  <advance width="420"/>
  <unicode hex="00FE"/>
  <outline>
    <contour>
      <point x="105" y="-190" type="line"/>
      <point x="105" y="0" type="line"/>
      <point x="270" y="-3" type="line" smooth="yes"/>
      <point x="340" y="-4"/>
      <point x="370" y="17"/>
      <point x="370" y="87" type="curve" smooth="yes"/>
      <point x="370" y="405" type="line" smooth="yes"/>
      <point x="370" y="475"/>
      <point x="340" y="495"/>
      <point x="270" y="495" type="curve" smooth="yes"/>
      <point x="178" y="495" type="line" smooth="yes"/>
      <point x="118" y="495"/>
      <point x="98" y="475"/>
      <point x="98" y="415" type="curve"/>
      <point x="105" y="458" type="line"/>
      <point x="105" y="675" type="line"/>
      <point x="60" y="675" type="line"/>
      <point x="60" y="-190" type="line"/>
    </contour>
    <contour>
      <point x="105" y="451" type="line" smooth="yes"/>
      <point x="105" y="456"/>
      <point x="108" y="458"/>
      <point x="112" y="458" type="curve" smooth="yes"/>
      <point x="317" y="458" type="line" smooth="yes"/>
      <point x="321" y="458"/>
      <point x="324" y="456"/>
      <point x="324" y="451" type="curve" smooth="yes"/>
      <point x="324" y="40" type="line" smooth="yes"/>
      <point x="324" y="35"/>
      <point x="321" y="33"/>
      <point x="317" y="33" type="curve" smooth="yes"/>
      <point x="98" y="36" type="line"/>
      <point x="105" y="29" type="line"/>
    </contour>
  </outline>
</glyph>
<glyph name="uni0123" format="1">
  <advance width="405"/>
  <unicode hex="0123"/>
  <outline>
    <contour>
      <point x="183" y="599" type="line"/>
      <point x="183" y="683" type="line"/>
      <point x="244" y="683" type="line"/>
      <point x="244" y="612" type="line" smooth="yes"/>
      <point x="244" y="582"/>
      <point x="234" y="558"/>
      <point x="212" y="530" type="curve"/>
      <point x="190" y="544" type="line"/>
      <point x="201" y="568"/>
      <point x="207" y="590"/>
      <point x="207" y="603" type="curve"/>
      <point x="210" y="599" type="line"/>
    </contour>
    <component base="g"/>
  </outline>
</glyph>
<glyph name="dotlessi" format="1">
  <advance width="185"/>
  <unicode hex="0131"/>
  <outline>
    <contour>
      <point x="115" y="0" type="line"/>
      <point x="115" y="490" type="line"/>
      <point x="70" y="490" type="line"/>
      <point x="70" y="0" type="line"/>
    </contour>
    <contour>
      <point x="115" y="0" type="move" name="ogonek"/>
    </contour>
    <contour>
      <point x="93" y="490" type="move" name="top"/>
    </contour>
  </outline>
</glyph>
<glyph name="lslash" format="1">
  <advance width="185"/>
  <unicode hex="0142"/>
  <outline>
    <contour>
      <point x="183" y="388" type="line"/>
      <point x="-8" y="319" type="line"/>
      <point x="4" y="282" type="line"/>
      <point x="195" y="352" type="line"/>
    </contour>
    <component base="l"/>
  </outline>
</glyph>
<glyph name="oe" format="1">
  <advance width="681"/>
  <unicode hex="0153"/>
  <outline>
    <contour>
      <point x="319" y="458" type="line" smooth="yes"/>
      <point x="323" y="458"/>
      <point x="326" y="456"/>
      <point x="326" y="451" type="curve" smooth="yes"/>
      <point x="326" y="39" type="line" smooth="yes"/>
      <point x="326" y="34"/>
      <point x="323" y="32"/>
      <point x="319" y="32" type="curve" smooth="yes"/>
      <point x="103" y="32" type="line" smooth="yes"/>
      <point x="99" y="32"/>
      <point x="96" y="34"/>
      <point x="96" y="39" type="curve" smooth="yes"/>
      <point x="96" y="451" type="line" smooth="yes"/>
      <point x="96" y="456"/>
      <point x="99" y="458"/>
      <point x="103" y="458" type="curve" smooth="yes"/>
    </contour>
    <contour>
      <point x="334" y="85" type="line"/>
      <point x="335" y="15"/>
      <point x="359" y="-5"/>
      <point x="429" y="-5" type="curve" smooth="yes"/>
      <point x="626" y="-5" type="line"/>
      <point x="626" y="32" type="line"/>
      <point x="378" y="32" type="line" smooth="yes"/>
      <point x="374" y="32"/>
      <point x="371" y="34"/>
      <point x="371" y="39" type="curve" smooth="yes"/>
      <point x="371" y="451" type="line" smooth="yes"/>
      <point x="371" y="456"/>
      <point x="374" y="458"/>
      <point x="378" y="458" type="curve" smooth="yes"/>
      <point x="583" y="458" type="line" smooth="yes"/>
      <point x="587" y="458"/>
      <point x="590" y="456"/>
      <point x="590" y="451" type="curve" smooth="yes"/>
      <point x="590" y="234" type="line"/>
      <point x="364" y="234" type="line"/>
      <point x="364" y="198" type="line"/>
      <point x="636" y="198" type="line"/>
      <point x="636" y="405" type="line" smooth="yes"/>
      <point x="636" y="475"/>
      <point x="606" y="495"/>
      <point x="536" y="495" type="curve" smooth="yes"/>
      <point x="423" y="495" type="line" smooth="yes"/>
      <point x="353" y="495"/>
      <point x="335" y="475"/>
      <point x="334" y="405" type="curve"/>
      <point x="364" y="405" type="line"/>
      <point x="364" y="475"/>
      <point x="340" y="495"/>
      <point x="270" y="495" type="curve" smooth="yes"/>
      <point x="150" y="495" type="line" smooth="yes"/>
      <point x="80" y="495"/>
      <point x="50" y="475"/>
      <point x="50" y="405" type="curve" smooth="yes"/>
      <point x="50" y="85" type="line" smooth="yes"/>
      <point x="50" y="15"/>
      <point x="80" y="-5"/>
      <point x="150" y="-5" type="curve" smooth="yes"/>
      <point x="270" y="-5" type="line" smooth="yes"/>
      <point x="340" y="-5"/>
      <point x="364" y="15"/>
      <point x="364" y="85" type="curve"/>
    </contour>
  </outline>
</glyph>
<glyph name="florin" format="1">
  <advance width="374"/>
  <unicode hex="0192"/>
  <outline>
    <contour>
      <point x="66" y="-190" type="line" smooth="yes"/>
      <point x="136" y="-190"/>
      <point x="161" y="-170"/>
      <point x="166" y="-100" type="curve" smooth="yes"/>
      <point x="203" y="376" type="line"/>
      <point x="193" y="366" type="line"/>
      <point x="312" y="366" type="line"/>
      <point x="312" y="402" type="line"/>
      <point x="194" y="402" type="line"/>
      <point x="204" y="392" type="line"/>
      <point x="223" y="636" type="line" smooth="yes"/>
      <point x="223" y="641"/>
      <point x="226" y="643"/>
      <point x="230" y="643" type="curve" smooth="yes"/>
      <point x="344" y="643" type="line"/>
      <point x="344" y="680" type="line"/>
      <point x="278" y="680" type="line" smooth="yes"/>
      <point x="208" y="680"/>
      <point x="183" y="660"/>
      <point x="178" y="590" type="curve" smooth="yes"/>
      <point x="163" y="392" type="line"/>
      <point x="173" y="402" type="line"/>
      <point x="92" y="402" type="line"/>
      <point x="92" y="366" type="line"/>
      <point x="172" y="366" type="line"/>
      <point x="162" y="376" type="line"/>
      <point x="121" y="-146" type="line" smooth="yes"/>
      <point x="121" y="-151"/>
      <point x="118" y="-153"/>
      <point x="114" y="-153" type="curve" smooth="yes"/>
      <point x="12" y="-153" type="line"/>
      <point x="12" y="-190" type="line"/>
    </contour>
  </outline>
</glyph>
<glyph name="circumflex" format="1">
  <advance width="311"/>
  <unicode hex="02C6"/>
  <outline>
    <contour>
      <point x="178" y="674" type="line"/>
      <point x="122" y="674" type="line"/>
      <point x="32" y="554" type="line"/>
      <point x="79" y="554" type="line"/>
      <point x="153" y="654" type="line"/>
      <point x="147" y="654" type="line"/>
      <point x="214" y="554" type="line"/>
      <point x="263" y="554" type="line"/>
    </contour>
    <contour>
      <point x="156" y="490" type="move" name="_top"/>
    </contour>
  </outline>
</glyph>
<glyph name="breve" format="1">
  <advance width="348"/>
  <unicode hex="02D8"/>
  <outline>
    <contour>
      <point x="70" y="668" type="line"/>
      <point x="70" y="589"/>
      <point x="95" y="562"/>
      <point x="177" y="562" type="curve" smooth="yes"/>
      <point x="251" y="562"/>
      <point x="278" y="588"/>
      <point x="278" y="668" type="curve"/>
      <point x="242" y="668" type="line"/>
      <point x="242" y="618"/>
      <point x="234" y="596"/>
      <point x="177" y="596" type="curve" smooth="yes"/>
      <point x="115" y="596"/>
      <point x="107" y="618"/>
      <point x="107" y="668" type="curve"/>
    </contour>
    <contour>
      <point x="169" y="490" type="move" name="_top"/>
    </contour>
  </outline>
</glyph>
<glyph name="dotaccent" format="1">
  <advance width="138"/>
  <unicode hex="02D9"/>
  <outline>
    <contour>
      <point x="98" y="580" type="line"/>
      <point x="98" y="656" type="line"/>
      <point x="40" y="656" type="line"/>
      <point x="40" y="580" type="line"/>
    </contour>
    <contour>
      <point x="69" y="490" type="move" name="_top"/>
    </contour>
  </outline>
</glyph>
<glyph name="ring" format="1">
  <advance width="297"/>
  <unicode hex="02DA"/>
  <outline>
    <contour>
      <point x="209" y="542"/>
      <point x="229" y="566"/>
      <point x="229" y="620" type="curve" smooth="yes"/>
      <point x="229" y="677"/>
      <point x="209" y="698"/>
      <point x="147" y="698" type="curve" smooth="yes"/>
      <point x="86" y="698"/>
      <point x="68" y="677"/>
      <point x="68" y="620" type="curve" smooth="yes"/>
      <point x="68" y="566"/>
      <point x="86" y="542"/>
      <point x="147" y="542" type="curve" smooth="yes"/>
    </contour>
    <contour>
      <point x="104" y="568"/>
      <point x="101" y="582"/>
      <point x="101" y="620" type="curve" smooth="yes"/>
      <point x="101" y="662"/>
      <point x="104" y="672"/>
      <point x="147" y="672" type="curve" smooth="yes"/>
      <point x="192" y="672"/>
      <point x="196" y="662"/>
      <point x="196" y="620" type="curve" smooth="yes"/>
      <point x="196" y="582"/>
      <point x="192" y="568"/>
      <point x="147" y="568" type="curve" smooth="yes"/>
    </contour>
    <contour>
      <point x="149" y="490" type="move" name="_top"/>
    </contour>
  </outline>
</glyph>
<glyph name="ogonek" format="1">
  <advance width="258"/>
  <unicode hex="02DB"/>
  <outline>
    <contour>
      <point x="220" y="-200" type="line"/>
      <point x="220" y="-160" type="line"/>
      <point x="134" y="-160" type="line" smooth="yes"/>
      <point x="130" y="-160"/>
      <point x="127" y="-158"/>
      <point x="127" y="-153" type="curve" smooth="yes"/>
      <point x="127" y="-87" type="line" smooth="yes"/>
      <point x="127" y="-78"/>
      <point x="127" y="-78"/>
      <point x="135" y="-70" type="curve" smooth="yes"/>
      <point x="200" y="0" type="line"/>
      <point x="166" y="6" type="line"/>
      <point x="108" y="-45" type="line" smooth="yes"/>
      <point x="89" y="-62"/>
      <point x="82" y="-80"/>
      <point x="82" y="-111" type="curve" smooth="yes"/>
      <point x="82" y="-131" type="line" smooth="yes"/>
      <point x="82" y="-184"/>
      <point x="113" y="-200"/>
      <point x="183" y="-200" type="curve" smooth="yes"/>
    </contour>
    <contour>
      <point x="200" y="0" type="move" name="_ogonek"/>
    </contour>
  </outline>
</glyph>
<glyph name="tilde" format="1">
  <advance width="330"/>
  <unicode hex="02DC"/>
  <outline>
    <contour>
      <point x="81" y="586" type="line"/>
      <point x="81" y="615"/>
      <point x="91" y="623"/>
      <point x="105" y="623" type="curve" smooth="yes"/>
      <point x="138" y="623"/>
      <point x="181" y="586"/>
      <point x="227" y="586" type="curve" smooth="yes"/>
      <point x="262" y="586"/>
      <point x="283" y="600"/>
      <point x="283" y="661" type="curve"/>
      <point x="245" y="661" type="line"/>
      <point x="245" y="632"/>
      <point x="238" y="624"/>
      <point x="218" y="624" type="curve" smooth="yes"/>
      <point x="181" y="624"/>
      <point x="143" y="661"/>
      <point x="95" y="661" type="curve" smooth="yes"/>
      <point x="60" y="661"/>
      <point x="43" y="642"/>
      <point x="43" y="586" type="curve"/>
    </contour>
    <contour>
      <point x="165" y="490" type="move" name="_top"/>
    </contour>
  </outline>
</glyph>
<glyph name="hungarumlaut" format="1">
  <advance width="304"/>
  <unicode hex="02DD"/>
  <outline>
    <contour>
      <point x="40" y="554" type="line"/>
      <point x="100" y="679" type="line"/>
      <point x="156" y="678" type="line"/>
      <point x="77" y="554" type="line"/>
    </contour>
    <contour>
      <point x="149" y="554" type="line"/>
      <point x="209" y="679" type="line"/>
      <point x="265" y="678" type="line"/>
      <point x="186" y="554" type="line"/>
    </contour>
    <contour>
      <point x="118" y="490" type="move" name="_top"/>
    </contour>
  </outline>
</glyph>
<glyph name="pi" format="1">
  <advance width="480"/>
  <unicode hex="03C0"/>
  <outline>
    <contour>
      <point x="131" y="0" type="line"/>
      <point x="131" y="464" type="line"/>
      <point x="121" y="454" type="line"/>
      <point x="359" y="454" type="line"/>
      <point x="349" y="464" type="line"/>
      <point x="349" y="0" type="line"/>
      <point x="394" y="0" type="line"/>
      <point x="394" y="464" type="line"/>
      <point x="384" y="454" type="line"/>
      <point x="459" y="454" type="line"/>
      <point x="459" y="490" type="line"/>
      <point x="21" y="490" type="line"/>
      <point x="21" y="454" type="line"/>
      <point x="96" y="454" type="line"/>
      <point x="86" y="464" type="line"/>
      <point x="86" y="0" type="line"/>
    </contour>
  </outline>
</glyph>
<glyph name="daggerdbl" format="1">
  <advance width="600"/>
  <unicode hex="2021"/>
  <outline>
    <contour>
      <point x="203" y="197" type="line"/>
      <point x="211" y="247" type="line"/>
      <point x="211" y="403" type="line"/>
      <point x="203" y="453" type="line"/>
      <point x="185" y="453" type="line"/>
      <point x="177" y="403" type="line"/>
      <point x="177" y="247" type="line"/>
      <point x="185" y="197" type="line"/>
    </contour>
    <contour>
      <point x="211" y="-3" type="line"/>
      <point x="211" y="95" type="line"/>
      <point x="203" y="145" type="line"/>
      <point x="185" y="145" type="line"/>
      <point x="177" y="95" type="line"/>
      <point x="177" y="-3" type="line"/>
    </contour>
    <contour>
      <point x="118" y="154" type="line"/>
      <point x="168" y="162" type="line"/>
      <point x="168" y="180" type="line"/>
      <point x="118" y="188" type="line"/>
      <point x="30" y="188" type="line"/>
      <point x="30" y="154" type="line"/>
    </contour>
    <contour>
      <point x="358" y="154" type="line"/>
      <point x="358" y="188" type="line"/>
      <point x="270" y="188" type="line"/>
      <point x="220" y="180" type="line"/>
      <point x="220" y="162" type="line"/>
      <point x="270" y="154" type="line"/>
    </contour>
    <contour>
      <point x="118" y="462" type="line"/>
      <point x="168" y="470" type="line"/>
      <point x="168" y="488" type="line"/>
      <point x="118" y="496" type="line"/>
      <point x="30" y="496" type="line"/>
      <point x="30" y="462" type="line"/>
    </contour>
    <contour>
      <point x="358" y="462" type="line"/>
      <point x="358" y="496" type="line"/>
      <point x="270" y="496" type="line"/>
      <point x="220" y="488" type="line"/>
      <point x="220" y="470" type="line"/>
      <point x="270" y="462" type="line"/>
    </contour>
    <contour>
      <point x="203" y="505" type="line"/>
      <point x="211" y="555" type="line"/>
      <point x="211" y="653" type="line"/>
      <point x="177" y="653" type="line"/>
      <point x="177" y="555" type="line"/>
      <point x="185" y="505" type="line"/>
    </contour>
  </outline>
</glyph>
<glyph name="bullet" format="1">
  <advance width="292"/>
  <unicode hex="2022"/>
  <outline>
    <contour>
      <point x="90" y="259" type="line" smooth="yes"/>
      <point x="90" y="229"/>
      <point x="105" y="214"/>
      <point x="140" y="214" type="curve" smooth="yes"/>
      <point x="152" y="214" type="line" smooth="yes"/>
      <point x="187" y="214"/>
      <point x="202" y="229"/>
      <point x="202" y="259" type="curve" smooth="yes"/>
      <point x="202" y="312" type="line" smooth="yes"/>
      <point x="202" y="343"/>
      <point x="187" y="357"/>
      <point x="152" y="357" type="curve" smooth="yes"/>
      <point x="140" y="357" type="line" smooth="yes"/>
      <point x="105" y="357"/>
      <point x="90" y="343"/>
      <point x="90" y="312" type="curve" smooth="yes"/>
    </contour>
  </outline>
</glyph>
<glyph name="perthousand" format="1">
  <advance width="978"/>
  <unicode hex="2030"/>
  <outline>
    <contour>
      <point x="707" y="69" type="line" smooth="yes"/>
      <point x="707" y="23"/>
      <point x="729" y="0"/>
      <point x="784" y="0" type="curve" smooth="yes"/>
      <point x="865" y="0" type="line" smooth="yes"/>
      <point x="920" y="0"/>
      <point x="943" y="23"/>
      <point x="943" y="69" type="curve" smooth="yes"/>
      <point x="943" y="278" type="line" smooth="yes"/>
      <point x="943" y="325"/>
      <point x="920" y="347"/>
      <point x="865" y="347" type="curve" smooth="yes"/>
      <point x="784" y="347" type="line" smooth="yes"/>
      <point x="729" y="347"/>
      <point x="707" y="325"/>
      <point x="707" y="278" type="curve" smooth="yes"/>
    </contour>
    <contour>
      <point x="891" y="309" type="line" smooth="yes"/>
      <point x="895" y="309"/>
      <point x="898" y="307"/>
      <point x="898" y="302" type="curve" smooth="yes"/>
      <point x="898" y="45" type="line" smooth="yes"/>
      <point x="898" y="40"/>
      <point x="895" y="38"/>
      <point x="891" y="38" type="curve" smooth="yes"/>
      <point x="759" y="38" type="line" smooth="yes"/>
      <point x="755" y="38"/>
      <point x="752" y="40"/>
      <point x="752" y="45" type="curve" smooth="yes"/>
      <point x="752" y="302" type="line" smooth="yes"/>
      <point x="752" y="307"/>
      <point x="755" y="309"/>
      <point x="759" y="309" type="curve" smooth="yes"/>
    </contour>
    <component base="percent"/>
  </outline>
</glyph>
<glyph name="guilsinglleft" format="1">
  <advance width="227"/>
  <unicode hex="2039"/>
  <outline>
    <contour>
      <point x="37" y="255"/>
      <point x="38" y="251"/>
      <point x="46" y="240" type="curve" smooth="yes"/>
      <point x="152" y="87" type="line"/>
      <point x="199" y="87" type="line"/>
      <point x="94" y="247" type="line" smooth="yes"/>
      <point x="90" y="253"/>
      <point x="89" y="256"/>
      <point x="94" y="263" type="curve" smooth="yes"/>
      <point x="203" y="422" type="line"/>
      <point x="157" y="422" type="line"/>
      <point x="46" y="267" type="line" smooth="yes"/>
    </contour>
  </outline>
</glyph>
<glyph name="fraction" format="1">
  <advance width="433"/>
  <unicode hex="2044"/>
  <outline>
    <contour>
      <point x="356" y="640" type="line"/>
      <point x="20" y="-5" type="line"/>
      <point x="64" y="-5" type="line"/>
      <point x="399" y="640" type="line"/>
    </contour>
  </outline>
</glyph>
<glyph name="foursuperior" format="1">
  <advance width="364"/>
  <unicode hex="2074"/>
  <outline>
    <contour>
      <point x="266" y="249" type="line"/>
      <point x="266" y="343" type="line"/>
      <point x="263" y="340" type="line"/>
      <point x="319" y="340" type="line"/>
      <point x="319" y="372" type="line"/>
      <point x="263" y="372" type="line"/>
      <point x="266" y="369" type="line"/>
      <point x="266" y="635" type="line"/>
      <point x="217" y="635" type="line" smooth="yes"/>
      <point x="175" y="635"/>
      <point x="171" y="624"/>
      <point x="153" y="592" type="curve" smooth="yes"/>
      <point x="22" y="367" type="line"/>
      <point x="22" y="340" type="line"/>
      <point x="229" y="340" type="line"/>
      <point x="226" y="343" type="line"/>
      <point x="226" y="249" type="line"/>
    </contour>
    <contour>
      <point x="197" y="599" type="line" smooth="yes"/>
      <point x="199" y="602"/>
      <point x="199" y="603"/>
      <point x="203" y="603" type="curve" smooth="yes"/>
      <point x="226" y="603" type="line"/>
      <point x="226" y="369" type="line"/>
      <point x="229" y="372" type="line"/>
      <point x="61" y="372" type="line"/>
      <point x="64" y="369" type="line"/>
    </contour>
  </outline>
</glyph>
<glyph name="Euro" format="1">
  <advance width="462"/>
  <unicode hex="20AC"/>
  <outline>
    <contour>
      <point x="427" y="559" type="line"/>
      <point x="427" y="600" type="line"/>
      <point x="205" y="600" type="line" smooth="yes"/>
      <point x="135" y="600"/>
      <point x="107" y="580"/>
      <point x="107" y="510" type="curve" smooth="yes"/>
      <point x="107" y="364" type="line"/>
      <point x="117" y="374" type="line"/>
      <point x="42" y="374" type="line"/>
      <point x="42" y="338" type="line"/>
      <point x="117" y="338" type="line"/>
      <point x="107" y="348" type="line"/>
      <point x="107" y="258" type="line"/>
      <point x="117" y="268" type="line"/>
      <point x="42" y="268" type="line"/>
      <point x="42" y="232" type="line"/>
      <point x="117" y="232" type="line"/>
      <point x="107" y="242" type="line"/>
      <point x="107" y="90" type="line" smooth="yes"/>
      <point x="107" y="20"/>
      <point x="135" y="0"/>
      <point x="205" y="0" type="curve" smooth="yes"/>
      <point x="427" y="0" type="line"/>
      <point x="427" y="41" type="line"/>
      <point x="161" y="41" type="line" smooth="yes"/>
      <point x="157" y="41"/>
      <point x="154" y="43"/>
      <point x="154" y="48" type="curve" smooth="yes"/>
      <point x="154" y="242" type="line"/>
      <point x="144" y="232" type="line"/>
      <point x="312" y="232" type="line"/>
      <point x="312" y="268" type="line"/>
      <point x="144" y="268" type="line"/>
      <point x="154" y="254" type="line"/>
      <point x="154" y="348" type="line"/>
      <point x="144" y="338" type="line"/>
      <point x="312" y="338" type="line"/>
      <point x="312" y="374" type="line"/>
      <point x="144" y="374" type="line"/>
      <point x="154" y="360" type="line"/>
      <point x="154" y="552" type="line" smooth="yes"/>
      <point x="154" y="557"/>
      <point x="157" y="559"/>
      <point x="161" y="559" type="curve" smooth="yes"/>
    </contour>
  </outline>
</glyph>
<glyph name="uni20BA" format="1">
  <advance width="501"/>
  <unicode hex="20BA"/>
  <outline>
    <contour>
      <point x="356" y="-2" type="line" smooth="yes"/>
      <point x="426" y="-3"/>
      <point x="456" y="18"/>
      <point x="456" y="88" type="curve" smooth="yes"/>
      <point x="456" y="257" type="line"/>
      <point x="409" y="257" type="line"/>
      <point x="409" y="48" type="line" smooth="yes"/>
      <point x="409" y="43"/>
      <point x="406" y="41"/>
      <point x="402" y="41" type="curve" smooth="yes"/>
      <point x="159" y="41" type="line"/>
      <point x="172" y="28" type="line"/>
      <point x="172" y="245" type="line"/>
      <point x="162" y="235" type="line"/>
      <point x="332" y="298" type="line"/>
      <point x="332" y="335" type="line"/>
      <point x="162" y="272" type="line"/>
      <point x="172" y="258" type="line"/>
      <point x="172" y="351" type="line"/>
      <point x="162" y="341" type="line"/>
      <point x="332" y="404" type="line"/>
      <point x="332" y="441" type="line"/>
      <point x="162" y="378" type="line"/>
      <point x="172" y="364" type="line"/>
      <point x="172" y="600" type="line"/>
      <point x="125" y="600" type="line"/>
      <point x="125" y="358" type="line"/>
      <point x="135" y="368" type="line"/>
      <point x="40" y="334" type="line"/>
      <point x="40" y="297" type="line"/>
      <point x="135" y="331" type="line"/>
      <point x="125" y="341" type="line"/>
      <point x="125" y="252" type="line"/>
      <point x="135" y="262" type="line"/>
      <point x="40" y="228" type="line"/>
      <point x="40" y="191" type="line"/>
      <point x="135" y="225" type="line"/>
      <point x="125" y="235" type="line"/>
      <point x="125" y="0" type="line"/>
    </contour>
  </outline>
</glyph>
<glyph name="uni20BD" format="1">
  <advance width="518"/>
  <unicode hex="20BD"/>
  <outline>
    <contour>
      <point x="152" y="0" type="line"/>
      <point x="152" y="175" type="line"/>
      <point x="138" y="162" type="line"/>
      <point x="304" y="162" type="line"/>
      <point x="304" y="198" type="line"/>
      <point x="138" y="198" type="line"/>
      <point x="152" y="185" type="line"/>
      <point x="152" y="274" type="line"/>
      <point x="138" y="261" type="line"/>
      <point x="355" y="261" type="line" smooth="yes"/>
      <point x="430" y="261"/>
      <point x="463" y="289"/>
      <point x="463" y="362" type="curve" smooth="yes"/>
      <point x="463" y="500" type="line" smooth="yes"/>
      <point x="463" y="575"/>
      <point x="430" y="604"/>
      <point x="355" y="603" type="curve" smooth="yes"/>
      <point x="106" y="600" type="line"/>
      <point x="106" y="286" type="line"/>
      <point x="119" y="299" type="line"/>
      <point x="36" y="299" type="line"/>
      <point x="36" y="261" type="line"/>
      <point x="119" y="261" type="line"/>
      <point x="106" y="274" type="line"/>
      <point x="106" y="185" type="line"/>
      <point x="119" y="198" type="line"/>
      <point x="36" y="198" type="line"/>
      <point x="36" y="162" type="line"/>
      <point x="119" y="162" type="line"/>
      <point x="106" y="175" type="line"/>
      <point x="106" y="0" type="line"/>
    </contour>
    <contour>
      <point x="152" y="572" type="line"/>
      <point x="141" y="560" type="line"/>
      <point x="404" y="560" type="line" smooth="yes"/>
      <point x="412" y="560"/>
      <point x="416" y="556"/>
      <point x="416" y="548" type="curve" smooth="yes"/>
      <point x="416" y="311" type="line" smooth="yes"/>
      <point x="416" y="303"/>
      <point x="411" y="299"/>
      <point x="404" y="299" type="curve" smooth="yes"/>
      <point x="137" y="299" type="line"/>
      <point x="152" y="286" type="line"/>
    </contour>
  </outline>
</glyph>
<glyph name="uni2113" format="1">
  <advance width="390"/>
  <unicode hex="2113"/>
  <outline>
    <contour>
      <point x="355" y="-5" type="line"/>
      <point x="355" y="37" type="line"/>
      <point x="153" y="37" type="line" smooth="yes"/>
      <point x="149" y="37"/>
      <point x="146" y="39"/>
      <point x="146" y="44" type="curve" smooth="yes"/>
      <point x="146" y="631" type="line" smooth="yes"/>
      <point x="146" y="636"/>
      <point x="149" y="638"/>
      <point x="153" y="638" type="curve" smooth="yes"/>
      <point x="296" y="638" type="line" smooth="yes"/>
      <point x="300" y="638"/>
      <point x="303" y="636"/>
      <point x="303" y="631" type="curve" smooth="yes"/>
      <point x="303" y="405" type="line" smooth="yes"/>
      <point x="303" y="395"/>
      <point x="300" y="395"/>
      <point x="290" y="387" type="curve" smooth="yes"/>
      <point x="15" y="172" type="line"/>
      <point x="40" y="136" type="line"/>
      <point x="296" y="337" type="line" smooth="yes"/>
      <point x="333" y="366"/>
      <point x="352" y="384"/>
      <point x="352" y="434" type="curve" smooth="yes"/>
      <point x="352" y="590" type="line" smooth="yes"/>
      <point x="352" y="660"/>
      <point x="322" y="680"/>
      <point x="252" y="680" type="curve" smooth="yes"/>
      <point x="197" y="680" type="line" smooth="yes"/>
      <point x="127" y="680"/>
      <point x="97" y="660"/>
      <point x="97" y="590" type="curve" smooth="yes"/>
      <point x="97" y="85" type="line" smooth="yes"/>
      <point x="97" y="15"/>
      <point x="127" y="-5"/>
      <point x="197" y="-5" type="curve" smooth="yes"/>
    </contour>
  </outline>
</glyph>
<glyph name="trademark" format="1">
  <advance width="631"/>
  <unicode hex="2122"/>
  <outline>
    <contour>
      <point x="576" y="632"/>
      <point x="570" y="640"/>
      <point x="552" y="640" type="curve" smooth="yes"/>
      <point x="533" y="640" type="line"/>
      <point x="411" y="402" type="line"/>
      <point x="433" y="402" type="line"/>
      <point x="326" y="617" type="line" smooth="yes"/>
      <point x="317" y="635"/>
      <point x="310" y="640"/>
      <point x="296" y="640" type="curve" smooth="yes"/>
      <point x="268" y="640" type="line"/>
      <point x="268" y="243" type="line"/>
      <point x="309" y="243" type="line"/>
      <point x="309" y="610" type="line"/>
      <point x="289" y="610" type="line"/>
      <point x="407" y="375" type="line"/>
      <point x="434" y="375" type="line"/>
      <point x="558" y="616" type="line"/>
      <point x="534" y="616" type="line"/>
      <point x="534" y="243" type="line"/>
      <point x="576" y="243" type="line"/>
      <point x="576" y="613" type="line" smooth="yes"/>
    </contour>
    <contour>
      <point x="156" y="243" type="line"/>
      <point x="156" y="613" type="line"/>
      <point x="150" y="607" type="line"/>
      <point x="247" y="607" type="line"/>
      <point x="247" y="640" type="line"/>
      <point x="20" y="640" type="line"/>
      <point x="20" y="607" type="line"/>
      <point x="120" y="607" type="line"/>
      <point x="114" y="613" type="line"/>
      <point x="114" y="243" type="line"/>
    </contour>
  </outline>
</glyph>
<glyph name="estimated" format="1">
  <advance width="517"/>
  <unicode hex="212E"/>
  <outline>
    <contour>
      <point x="214" y="24"/>
      <point x="149" y="53"/>
      <point x="120" y="109" type="curve"/>
      <point x="120" y="256" type="line"/>
      <point x="462" y="256" type="line"/>
      <point x="462" y="416"/>
      <point x="362" y="495"/>
      <point x="264" y="495" type="curve" smooth="yes"/>
      <point x="126" y="495"/>
      <point x="55" y="368"/>
      <point x="55" y="243" type="curve" smooth="yes"/>
      <point x="55" y="81"/>
      <point x="154" y="-5"/>
      <point x="259" y="-5" type="curve" smooth="yes"/>
      <point x="317" y="-5"/>
      <point x="381" y="21"/>
      <point x="432" y="79" type="curve"/>
      <point x="413" y="100" type="line"/>
      <point x="372" y="52"/>
      <point x="318" y="24"/>
      <point x="263" y="24" type="curve" smooth="yes"/>
    </contour>
    <contour>
      <point x="310" y="467"/>
      <point x="357" y="448"/>
      <point x="389" y="408" type="curve"/>
      <point x="389" y="284" type="line"/>
      <point x="120" y="284" type="line"/>
      <point x="120" y="381" type="line"/>
      <point x="154" y="447"/>
      <point x="214" y="467"/>
      <point x="264" y="467" type="curve" smooth="yes"/>
    </contour>
  </outline>
</glyph>
<glyph name="partialdiff" format="1">
  <advance width="484"/>
  <unicode hex="2202"/>
  <outline>
    <contour>
      <point x="294" y="-2" type="line" smooth="yes"/>
      <point x="369" y="-2"/>
      <point x="404" y="15"/>
      <point x="404" y="90" type="curve" smooth="yes"/>
      <point x="404" y="532" type="line" smooth="yes"/>
      <point x="404" y="602"/>
      <point x="364" y="639"/>
      <point x="289" y="638" type="curve" smooth="yes"/>
      <point x="73" y="635" type="line"/>
      <point x="73" y="595" type="line"/>
      <point x="343" y="595" type="line" smooth="yes"/>
      <point x="350" y="595"/>
      <point x="355" y="591"/>
      <point x="355" y="583" type="curve" smooth="yes"/>
      <point x="355" y="52" type="line" smooth="yes"/>
      <point x="355" y="44"/>
      <point x="351" y="40"/>
      <point x="342" y="40" type="curve" smooth="yes"/>
      <point x="111" y="40" type="line" smooth="yes"/>
      <point x="103" y="40"/>
      <point x="99" y="44"/>
      <point x="99" y="52" type="curve" smooth="yes"/>
      <point x="99" y="317" type="line" smooth="yes"/>
      <point x="99" y="325"/>
      <point x="104" y="329"/>
      <point x="111" y="329" type="curve" smooth="yes"/>
      <point x="348" y="329" type="line" smooth="yes"/>
      <point x="352" y="329"/>
      <point x="355" y="327"/>
      <point x="355" y="322" type="curve"/>
      <point x="359" y="322" type="line"/>
      <point x="352" y="357"/>
      <point x="329" y="369"/>
      <point x="282" y="369" type="curve" smooth="yes"/>
      <point x="165" y="369" type="line" smooth="yes"/>
      <point x="90" y="369"/>
      <point x="50" y="343"/>
      <point x="50" y="273" type="curve" smooth="yes"/>
      <point x="50" y="100" type="line" smooth="yes"/>
      <point x="50" y="25"/>
      <point x="85" y="-2"/>
      <point x="160" y="-2" type="curve" smooth="yes"/>
    </contour>
  </outline>
</glyph>
<glyph name="uni2206" format="1">
  <advance width="483"/>
  <unicode hex="2206"/>
  <outline>
    <contour>
      <point x="475" y="0" type="line"/>
      <point x="269" y="635" type="line"/>
      <point x="215" y="635" type="line"/>
      <point x="8" y="0" type="line"/>
    </contour>
    <contour>
      <point x="245" y="606" type="line"/>
      <point x="238" y="606" type="line"/>
      <point x="420" y="29" type="line"/>
      <point x="425" y="40" type="line"/>
      <point x="53" y="40" type="line"/>
      <point x="62" y="27" type="line"/>
    </contour>
  </outline>
</glyph>
<glyph name="product" format="1">
  <advance width="523"/>
  <unicode hex="220F"/>
  <outline>
    <contour>
      <point x="493" y="635" type="line"/>
      <point x="30" y="635" type="line"/>
      <point x="30" y="595" type="line"/>
      <point x="100" y="595" type="line"/>
      <point x="90" y="605" type="line"/>
      <point x="90" y="0" type="line"/>
      <point x="136" y="0" type="line"/>
      <point x="136" y="605" type="line"/>
      <point x="126" y="595" type="line"/>
      <point x="397" y="595" type="line"/>
      <point x="387" y="605" type="line"/>
      <point x="387" y="0" type="line"/>
      <point x="433" y="0" type="line"/>
      <point x="433" y="605" type="line"/>
      <point x="423" y="595" type="line"/>
      <point x="493" y="595" type="line"/>
    </contour>
  </outline>
</glyph>
<glyph name="summation" format="1">
  <advance width="440"/>
  <unicode hex="2211"/>
  <outline>
    <contour>
      <point x="25" y="0" type="line"/>
      <point x="405" y="0" type="line"/>
      <point x="405" y="41" type="line"/>
      <point x="71" y="41" type="line"/>
      <point x="72" y="29" type="line"/>
      <point x="259" y="330" type="line"/>
      <point x="83" y="606" type="line"/>
      <point x="82" y="594" type="line"/>
      <point x="405" y="594" type="line"/>
      <point x="405" y="635" type="line"/>
      <point x="34" y="635" type="line"/>
      <point x="34" y="602" type="line"/>
      <point x="217" y="317" type="line"/>
      <point x="215" y="337" type="line"/>
      <point x="25" y="32" type="line"/>
    </contour>
  </outline>
</glyph>
<glyph name="minus" format="1">
  <advance width="520"/>
  <unicode hex="2212"/>
  <outline>
    <contour>
      <point x="460" y="317" type="line"/>
      <point x="60" y="317" type="line"/>
      <point x="60" y="277" type="line"/>
      <point x="460" y="277" type="line"/>
    </contour>
  </outline>
</glyph>
<glyph name="radical" format="1">
  <advance width="555"/>
  <unicode hex="221A"/>
  <outline>
    <contour>
      <point x="302" y="-35" type="line"/>
      <point x="524" y="680" type="line"/>
      <point x="484" y="680" type="line"/>
      <point x="274" y="8" type="line"/>
      <point x="290" y="8" type="line"/>
      <point x="122" y="490" type="line"/>
      <point x="25" y="490" type="line"/>
      <point x="25" y="450" type="line"/>
      <point x="95" y="450" type="line"/>
      <point x="87" y="455" type="line"/>
      <point x="259" y="-35" type="line"/>
    </contour>
  </outline>
</glyph>
<glyph name="infinity" format="1">
  <advance width="744"/>
  <unicode hex="221E"/>
  <outline>
    <contour>
      <point x="592" y="131" type="line" smooth="yes"/>
      <point x="662" y="131"/>
      <point x="694" y="166"/>
      <point x="694" y="227" type="curve" smooth="yes"/>
      <point x="694" y="334" type="line" smooth="yes"/>
      <point x="694" y="402"/>
      <point x="662" y="430"/>
      <point x="592" y="430" type="curve" smooth="yes"/>
      <point x="486" y="430" type="line" smooth="yes"/>
      <point x="443" y="430"/>
      <point x="432" y="417"/>
      <point x="407" y="376" type="curve" smooth="yes"/>
      <point x="293" y="185" type="line" smooth="yes"/>
      <point x="284" y="169"/>
      <point x="281" y="168"/>
      <point x="259" y="168" type="curve" smooth="yes"/>
      <point x="106" y="168" type="line" smooth="yes"/>
      <point x="99" y="168"/>
      <point x="95" y="173"/>
      <point x="95" y="179" type="curve" smooth="yes"/>
      <point x="95" y="382" type="line" smooth="yes"/>
      <point x="95" y="388"/>
      <point x="99" y="393"/>
      <point x="106" y="393" type="curve" smooth="yes"/>
      <point x="275" y="393" type="line" smooth="yes"/>
      <point x="284" y="393"/>
      <point x="287" y="389"/>
      <point x="291" y="382" type="curve" smooth="yes"/>
      <point x="402" y="191" type="line" smooth="yes"/>
      <point x="425" y="152"/>
      <point x="432" y="131"/>
      <point x="487" y="131" type="curve" smooth="yes"/>
    </contour>
    <contour>
      <point x="252" y="131" type="line" smooth="yes"/>
      <point x="307" y="131"/>
      <point x="314" y="152"/>
      <point x="337" y="191" type="curve" smooth="yes"/>
      <point x="451" y="381" type="line" smooth="yes"/>
      <point x="456" y="389"/>
      <point x="458" y="393"/>
      <point x="467" y="393" type="curve" smooth="yes"/>
      <point x="638" y="393" type="line" smooth="yes"/>
      <point x="645" y="393"/>
      <point x="649" y="388"/>
      <point x="649" y="382" type="curve" smooth="yes"/>
      <point x="649" y="179" type="line" smooth="yes"/>
      <point x="649" y="173"/>
      <point x="645" y="168"/>
      <point x="638" y="168" type="curve" smooth="yes"/>
      <point x="486" y="168" type="line" smooth="yes"/>
      <point x="464" y="168"/>
      <point x="461" y="170"/>
      <point x="452" y="185" type="curve" smooth="yes"/>
      <point x="341" y="376" type="line" smooth="yes"/>
      <point x="317" y="417"/>
      <point x="303" y="430"/>
      <point x="260" y="430" type="curve" smooth="yes"/>
      <point x="152" y="430" type="line" smooth="yes"/>
      <point x="82" y="430"/>
      <point x="50" y="402"/>
      <point x="50" y="334" type="curve" smooth="yes"/>
      <point x="50" y="227" type="line" smooth="yes"/>
      <point x="50" y="166"/>
      <point x="82" y="131"/>
      <point x="152" y="131" type="curve" smooth="yes"/>
    </contour>
  </outline>
</glyph>
<glyph name="approxequal" format="1">
  <advance width="402"/>
  <unicode hex="2248"/>
  <outline>
    <contour>
      <point x="87" y="291" type="line"/>
      <point x="89" y="321"/>
      <point x="102" y="332"/>
      <point x="122" y="332" type="curve" smooth="yes"/>
      <point x="160" y="332"/>
      <point x="234" y="282"/>
      <point x="290" y="282" type="curve" smooth="yes"/>
      <point x="335" y="282"/>
      <point x="357" y="303"/>
      <point x="357" y="373" type="curve"/>
      <point x="316" y="373" type="line"/>
      <point x="316" y="336"/>
      <point x="304" y="323"/>
      <point x="281" y="323" type="curve" smooth="yes"/>
      <point x="242" y="323"/>
      <point x="168" y="373"/>
      <point x="112" y="373" type="curve" smooth="yes"/>
      <point x="69" y="373"/>
      <point x="47" y="353"/>
      <point x="45" y="291" type="curve"/>
    </contour>
    <contour>
      <point x="87" y="159" type="line"/>
      <point x="87" y="196"/>
      <point x="100" y="209"/>
      <point x="122" y="209" type="curve" smooth="yes"/>
      <point x="160" y="209"/>
      <point x="234" y="159"/>
      <point x="290" y="159" type="curve" smooth="yes"/>
      <point x="334" y="159"/>
      <point x="356" y="179"/>
      <point x="357" y="242" type="curve"/>
      <point x="316" y="242" type="line"/>
      <point x="315" y="212"/>
      <point x="303" y="200"/>
      <point x="281" y="200" type="curve" smooth="yes"/>
      <point x="242" y="200"/>
      <point x="168" y="250"/>
      <point x="112" y="250" type="curve" smooth="yes"/>
      <point x="67" y="250"/>
      <point x="45" y="228"/>
      <point x="45" y="159" type="curve"/>
    </contour>
  </outline>
</glyph>
<glyph name="notequal" format="1">
  <advance width="475"/>
  <unicode hex="2260"/>
  <outline>
    <contour>
      <point x="325" y="500" type="line"/>
      <point x="105" y="44" type="line"/>
      <point x="149" y="44" type="line"/>
      <point x="368" y="500" type="line"/>
    </contour>
    <component base="equal"/>
  </outline>
</glyph>
<glyph name="fl" format="1">
  <advance width="452"/>
  <unicode hex="FB02"/>
  <outline>
    <contour>
      <point x="136" y="0" type="line"/>
      <point x="136" y="636" type="line" smooth="yes"/>
      <point x="136" y="641"/>
      <point x="139" y="643"/>
      <point x="143" y="643" type="curve" smooth="yes"/>
      <point x="274" y="643" type="line"/>
      <point x="274" y="680" type="line"/>
      <point x="191" y="680" type="line" smooth="yes"/>
      <point x="121" y="680"/>
      <point x="91" y="660"/>
      <point x="91" y="590" type="curve" smooth="yes"/>
      <point x="91" y="0" type="line"/>
    </contour>
    <contour>
      <point x="262" y="454" type="line"/>
      <point x="262" y="490" type="line"/>
      <point x="26" y="490" type="line"/>
      <point x="26" y="454" type="line"/>
    </contour>
    <contour>
      <point x="382" y="0" type="line"/>
      <point x="382" y="675" type="line"/>
      <point x="337" y="675" type="line"/>
      <point x="337" y="0" type="line"/>
    </contour>
  </outline>
</glyph>
